<svg xmlns="http://www.w3.org/2000/svg" width="26" height="26" viewBox="0 0 26 26" fill="none">
<g clip-path="url(#clip0_29_11)">
<path d="M13.0625 25.5C14.7871 25.5 16.1861 24.1011 16.1861 22.375H9.939C9.939 24.1011 11.3379 25.5 13.0625 25.5ZM23.5796 18.1899C22.6363 17.1763 20.8711 15.6514 20.8711 10.6562C20.8711 6.8623 18.211 3.8252 14.6241 3.08008V2.0625C14.6241 1.19971 13.9248 0.5 13.0625 0.5C12.2002 0.5 11.501 1.19971 11.501 2.0625V3.08008C7.9141 3.8252 5.25394 6.8623 5.25394 10.6562C5.25394 15.6514 3.4888 17.1763 2.54544 18.1899C2.25248 18.5049 2.12259 18.8813 2.12503 19.25C2.1304 20.0508 2.75882 20.8125 3.69242 20.8125H22.4327C23.3662 20.8125 23.9952 20.0508 24 19.25C24.0025 18.8813 23.8726 18.5044 23.5796 18.1899Z" fill="#FFC876"/>
</g>
<defs>
<clipPath id="clip0_29_11">
<rect width="25.8751" height="25" fill="white" transform="translate(0.125 0.5)"/>
</clipPath>
</defs>
</svg>