<svg xmlns="http://www.w3.org/2000/svg" width="28" height="29" viewBox="0 0 28 29" fill="none">
<rect x="1.3125" y="1.40625" width="26.1875" height="26.1875" rx="4.5" fill="#FFF8D6"/>
<path d="M17.6641 14.5L22.5503 9.61377C23.1499 9.01416 23.1499 8.04199 22.5503 7.44189L21.4644 6.35596C20.8647 5.75635 19.8926 5.75635 19.2925 6.35596L14.4062 11.2422L9.52002 6.35596C8.92041 5.75635 7.94824 5.75635 7.34814 6.35596L6.26221 7.44189C5.6626 8.0415 5.6626 9.01367 6.26221 9.61377L11.1484 14.5L6.26221 19.3862C5.6626 19.9858 5.6626 20.958 6.26221 21.5581L7.34814 22.644C7.94775 23.2437 8.92041 23.2437 9.52002 22.644L14.4062 17.7578L19.2925 22.644C19.8921 23.2437 20.8647 23.2437 21.4644 22.644L22.5503 21.5581C23.1499 20.9585 23.1499 19.9863 22.5503 19.3862L17.6641 14.5Z" fill="black"/>
<rect x="1.3125" y="1.40625" width="26.1875" height="26.1875" rx="4.5" stroke="black"/>
</svg>