<svg xmlns="http://www.w3.org/2000/svg" width="120" height="32" viewBox="0 0 120 32" fill="none">
<path d="M25.5156 15.1445C25.5156 16.9674 25.1966 18.6146 24.5586 20.0859C23.9336 21.5443 23.0807 22.8398 22 23.9727C20.9323 25.1055 19.6823 26.082 18.25 26.9023C16.8177 27.7096 15.3073 28.3737 13.7188 28.8945C12.1302 29.4154 10.5091 29.7995 8.85547 30.0469C7.20182 30.2943 5.60677 30.418 4.07031 30.418C3.54948 30.418 3.03516 30.4049 2.52734 30.3789C2.01953 30.3529 1.53776 30.3008 1.08203 30.2227L0.320312 1.21875C1.33594 1.14062 2.3125 1.08203 3.25 1.04297C4.1875 1.00391 5.06641 0.984375 5.88672 0.984375C7.33203 0.984375 8.82292 1.04297 10.3594 1.16016C11.8958 1.26432 13.3867 1.49219 14.832 1.84375C16.2904 2.18229 17.6641 2.67057 18.9531 3.30859C20.2552 3.94661 21.388 4.79297 22.3516 5.84766C23.3281 6.88932 24.0964 8.17188 24.6562 9.69531C25.2292 11.2188 25.5156 13.0352 25.5156 15.1445ZM21.8438 14.9492C21.8047 13.6862 21.5898 12.5469 21.1992 11.5312C20.8086 10.5026 20.2747 9.59766 19.5977 8.81641C18.9336 8.03516 18.1523 7.36458 17.2539 6.80469C16.3555 6.23177 15.3854 5.76302 14.3438 5.39844C13.3021 5.03385 12.2083 4.76693 11.0625 4.59766C9.91667 4.42839 8.76432 4.34375 7.60547 4.34375C7.11068 4.34375 6.58333 4.36328 6.02344 4.40234C5.47656 4.42839 4.91016 4.47396 4.32422 4.53906L4.92969 26.6289C5.15104 26.6549 5.3724 26.668 5.59375 26.668C5.82812 26.668 6.05599 26.668 6.27734 26.668C7.57943 26.668 8.875 26.5508 10.1641 26.3164C11.4531 26.082 12.6771 25.737 13.8359 25.2812C15.0078 24.8255 16.0885 24.2656 17.0781 23.6016C18.0677 22.9245 18.9206 22.1562 19.6367 21.2969C20.3529 20.4245 20.9062 19.4609 21.2969 18.4062C21.7005 17.3385 21.8828 16.1862 21.8438 14.9492ZM104.926 30.3398L100.883 31.1406L96.957 6.62891L90.5117 27.8594L85.668 28.4258L78.3633 7.82031L74.8281 30.2227L70.707 29.6562L76.1172 1.17969H80.1602L88.0312 23.6992L95.043 1.41406L99.6328 1.29688L104.926 30.3398Z" fill="#FFC876"/>
<path d="M34.5195 28.4219C34.9336 28.4219 35.3438 28.3594 35.75 28.2344C36.1562 28.1016 36.5312 27.9141 36.875 27.6719C37.2188 27.4219 37.5156 27.1133 37.7656 26.7461C38.0234 26.3789 38.2109 25.9531 38.3281 25.4688L40.5898 25.9258C40.3711 26.6367 40.0625 27.2812 39.6641 27.8594C39.2656 28.4375 38.8008 28.9336 38.2695 29.3477C37.7383 29.7617 37.1523 30.082 36.5117 30.3086C35.8789 30.5352 35.2148 30.6484 34.5195 30.6484C33.4883 30.6484 32.5742 30.4922 31.7773 30.1797C30.9805 29.8672 30.3086 29.4258 29.7617 28.8555C29.2148 28.2852 28.7969 27.5977 28.5078 26.793C28.2266 25.9883 28.0859 25.0898 28.0859 24.0977C28.0859 23.1211 28.25 22.2109 28.5781 21.3672C28.9141 20.5156 29.3711 19.7773 29.9492 19.1523C30.5273 18.5273 31.207 18.0352 31.9883 17.6758C32.7695 17.3164 33.6133 17.1367 34.5195 17.1367C35.332 17.1367 36.0977 17.2969 36.8164 17.6172C37.5352 17.9297 38.1719 18.3672 38.7266 18.9297C39.2812 19.4844 39.7383 20.1406 40.0977 20.8984C40.457 21.6562 40.6836 22.4766 40.7773 23.3594L30.6289 24.8711C30.6836 25.4258 30.8203 25.9258 31.0391 26.3711C31.2578 26.8086 31.5352 27.1797 31.8711 27.4844C32.2148 27.7891 32.6094 28.0234 33.0547 28.1875C33.5078 28.3438 33.9961 28.4219 34.5195 28.4219ZM37.7539 21.8477L37.6836 21.625C37.3867 20.8516 36.9766 20.2461 36.4531 19.8086C35.9375 19.3711 35.293 19.1523 34.5195 19.1523C34.1914 19.1523 33.832 19.2109 33.4414 19.3281C33.0508 19.4375 32.6719 19.6289 32.3047 19.9023C31.9375 20.1758 31.6055 20.543 31.3086 21.0039C31.0195 21.457 30.8164 22.0234 30.6992 22.7031L37.7539 21.8477ZM52.25 30.2383L52.4141 28.5859C51.4609 29.1953 50.5234 29.6367 49.6016 29.9102C48.6875 30.1836 47.832 30.3203 47.0352 30.3203C46.4727 30.3203 45.9258 30.2461 45.3945 30.0977C44.8711 29.957 44.4062 29.7383 44 29.4414C43.6016 29.1367 43.2773 28.7539 43.0273 28.293C42.7852 27.8242 42.6641 27.2734 42.6641 26.6406C42.6641 26.0078 42.7578 25.4414 42.9453 24.9414C43.1328 24.4414 43.3906 24 43.7188 23.6172C44.0469 23.2344 44.4336 22.9062 44.8789 22.6328C45.3242 22.3594 45.8008 22.1367 46.3086 21.9648C46.8242 21.793 47.3633 21.668 47.9258 21.5898C48.4883 21.5039 49.0469 21.4609 49.6016 21.4609C50.1172 21.4609 50.5977 21.4805 51.043 21.5195C51.4883 21.5586 51.8828 21.6094 52.2266 21.6719C52.125 21.2812 52 20.8984 51.8516 20.5234C51.7031 20.1406 51.5117 19.8008 51.2773 19.5039C51.0508 19.1992 50.7695 18.9531 50.4336 18.7656C50.0977 18.5781 49.6953 18.4844 49.2266 18.4844C48.9219 18.4844 48.5742 18.5312 48.1836 18.625C47.793 18.7109 47.3633 18.8711 46.8945 19.1055C46.4258 19.3398 45.9141 19.6641 45.3594 20.0781C44.8047 20.4844 44.2109 21.0078 43.5781 21.6484L42.1602 19.9258C42.9102 19.2227 43.6289 18.6484 44.3164 18.2031C45.0039 17.7578 45.6484 17.4102 46.25 17.1602C46.8594 16.9023 47.4219 16.7266 47.9375 16.6328C48.4609 16.5391 48.9297 16.4922 49.3438 16.4922C50.0625 16.4922 50.7031 16.6172 51.2656 16.8672C51.8281 17.1094 52.3203 17.4453 52.7422 17.875C53.1719 18.2969 53.5312 18.7969 53.8203 19.375C54.1172 19.9453 54.3594 20.5625 54.5469 21.2266C54.7344 21.8828 54.8672 22.5664 54.9453 23.2773C55.0312 23.9883 55.0742 24.6953 55.0742 25.3984C55.0742 26.1484 55.0312 26.9531 54.9453 27.8125C54.8594 28.6719 54.7266 29.6094 54.5469 30.625L52.25 30.2383ZM52.5781 25.9727C52.5938 25.582 52.6055 25.1953 52.6133 24.8125C52.6211 24.4297 52.6016 24.0312 52.5547 23.6172C52.1719 23.5 51.7695 23.4062 51.3477 23.3359C50.9258 23.2656 50.5039 23.2305 50.082 23.2305C49.3789 23.2305 48.6953 23.3125 48.0312 23.4766C47.375 23.6406 46.8086 23.8789 46.332 24.1914C45.8555 24.5039 45.4961 24.8867 45.2539 25.3398C45.0195 25.793 44.9727 26.3086 45.1133 26.8867C45.2227 27.3555 45.4336 27.6836 45.7461 27.8711C46.0664 28.0586 46.4492 28.1523 46.8945 28.1523C47.3477 28.1523 47.8359 28.0781 48.3594 27.9297C48.8906 27.7734 49.4141 27.5859 49.9297 27.3672C50.4531 27.1406 50.9453 26.9023 51.4062 26.6523C51.8672 26.4023 52.2578 26.1758 52.5781 25.9727ZM66.9336 22.9023C66.9258 22.5195 66.8906 22.1875 66.8281 21.9062C66.7734 21.625 66.6992 21.3828 66.6055 21.1797C66.5195 20.9766 66.418 20.8086 66.3008 20.6758C66.1914 20.543 66.0781 20.4336 65.9609 20.3477C65.6875 20.1523 65.3789 20.0586 65.0352 20.0664C64.8164 20.0977 64.582 20.1914 64.332 20.3477C64.0898 20.4961 63.8398 20.6914 63.582 20.9336C63.3242 21.168 63.0625 21.4375 62.7969 21.7422C62.5391 22.0391 62.2891 22.3477 62.0469 22.668C61.8047 22.9805 61.5742 23.293 61.3555 23.6055C61.1367 23.918 60.9414 24.2031 60.7695 24.4609C60.7773 25.0469 60.7891 25.625 60.8047 26.1953C60.8203 26.7578 60.832 27.2852 60.8398 27.7773C60.8555 28.2617 60.8711 28.7031 60.8867 29.1016C60.9102 29.4922 60.9336 29.8086 60.957 30.0508L58.4375 30.3672C58.3906 29.0234 58.3477 27.8086 58.3086 26.7227C58.2695 25.6289 58.2344 24.6523 58.2031 23.793C58.1719 22.9336 58.1445 22.1758 58.1211 21.5195C58.1055 20.8633 58.0898 20.2969 58.0742 19.8203C58.043 18.7031 58.0195 17.875 58.0039 17.3359L60.6758 17.2891C60.6836 17.7656 60.6875 18.2539 60.6875 18.7539C60.6953 19.2461 60.7031 19.6992 60.7109 20.1133C60.7188 20.5977 60.7227 21.0703 60.7227 21.5312C60.9492 21.1719 61.2227 20.7773 61.543 20.3477C61.8711 19.918 62.2383 19.5117 62.6445 19.1289C63.0586 18.7461 63.5078 18.4141 63.9922 18.1328C64.4844 17.8438 65.0078 17.6641 65.5625 17.5938C66.1875 17.5625 66.7578 17.6953 67.2734 17.9922C67.4922 18.1172 67.707 18.2852 67.918 18.4961C68.1367 18.6992 68.3359 18.9648 68.5156 19.293C68.7031 19.6133 68.8594 20 68.9844 20.4531C69.1094 20.8984 69.1953 21.4258 69.2422 22.0352L66.9336 22.9023ZM113.52 28.4219C113.934 28.4219 114.344 28.3594 114.75 28.2344C115.156 28.1016 115.531 27.9141 115.875 27.6719C116.219 27.4219 116.516 27.1133 116.766 26.7461C117.023 26.3789 117.211 25.9531 117.328 25.4688L119.59 25.9258C119.371 26.6367 119.062 27.2812 118.664 27.8594C118.266 28.4375 117.801 28.9336 117.27 29.3477C116.738 29.7617 116.152 30.082 115.512 30.3086C114.879 30.5352 114.215 30.6484 113.52 30.6484C112.488 30.6484 111.574 30.4922 110.777 30.1797C109.98 29.8672 109.309 29.4258 108.762 28.8555C108.215 28.2852 107.797 27.5977 107.508 26.793C107.227 25.9883 107.086 25.0898 107.086 24.0977C107.086 23.1211 107.25 22.2109 107.578 21.3672C107.914 20.5156 108.371 19.7773 108.949 19.1523C109.527 18.5273 110.207 18.0352 110.988 17.6758C111.77 17.3164 112.613 17.1367 113.52 17.1367C114.332 17.1367 115.098 17.2969 115.816 17.6172C116.535 17.9297 117.172 18.3672 117.727 18.9297C118.281 19.4844 118.738 20.1406 119.098 20.8984C119.457 21.6562 119.684 22.4766 119.777 23.3594L109.629 24.8711C109.684 25.4258 109.82 25.9258 110.039 26.3711C110.258 26.8086 110.535 27.1797 110.871 27.4844C111.215 27.7891 111.609 28.0234 112.055 28.1875C112.508 28.3438 112.996 28.4219 113.52 28.4219ZM116.754 21.8477L116.684 21.625C116.387 20.8516 115.977 20.2461 115.453 19.8086C114.938 19.3711 114.293 19.1523 113.52 19.1523C113.191 19.1523 112.832 19.2109 112.441 19.3281C112.051 19.4375 111.672 19.6289 111.305 19.9023C110.938 20.1758 110.605 20.543 110.309 21.0039C110.02 21.457 109.816 22.0234 109.699 22.7031L116.754 21.8477Z" fill="#FFF8D6"/>
<path d="M24.5586 20.0859L24.0999 19.887L24.099 19.889L24.5586 20.0859ZM22 23.9727L21.6382 23.6275L21.6361 23.6297L22 23.9727ZM18.25 26.9023L18.4955 27.3379L18.4985 27.3362L18.25 26.9023ZM1.08203 30.2227L0.582204 30.2358L0.59298 30.6461L0.997549 30.7155L1.08203 30.2227ZM0.320312 1.21875L0.281964 0.720223L-0.191995 0.756681L-0.179515 1.23188L0.320312 1.21875ZM10.3594 1.16016L10.3213 1.65873L10.3256 1.65901L10.3594 1.16016ZM14.832 1.84375L14.7138 2.32961L14.719 2.3308L14.832 1.84375ZM18.9531 3.30859L18.7313 3.75671L18.7331 3.75759L18.9531 3.30859ZM22.3516 5.84766L21.9824 6.18493L21.9868 6.18963L22.3516 5.84766ZM24.6562 9.69531L24.1869 9.8678L24.1883 9.87131L24.6562 9.69531ZM21.8438 14.9492L21.344 14.9647L21.344 14.965L21.8438 14.9492ZM21.1992 11.5312L20.7318 11.7088L20.7325 11.7107L21.1992 11.5312ZM19.5977 8.81641L19.2167 9.14025L19.2198 9.14387L19.5977 8.81641ZM17.2539 6.80469L16.9851 7.22629L16.9895 7.22903L17.2539 6.80469ZM6.02344 4.40234L6.04723 4.9019L6.05824 4.90113L6.02344 4.40234ZM4.32422 4.53906L4.269 4.04212L3.8118 4.09292L3.82441 4.55276L4.32422 4.53906ZM4.92969 26.6289L4.42988 26.6426L4.44173 27.0749L4.87127 27.1255L4.92969 26.6289ZM13.8359 25.2812L13.6547 24.8152L13.6529 24.8159L13.8359 25.2812ZM17.0781 23.6016L17.3567 24.0168L17.3605 24.0142L17.0781 23.6016ZM19.6367 21.2969L20.0208 21.617L20.0232 21.6141L19.6367 21.2969ZM21.2969 18.4062L20.8292 18.2294L20.828 18.2326L21.2969 18.4062ZM25.0156 15.1445C25.0156 16.9083 24.7072 18.4865 24.0999 19.887L25.0173 20.2849C25.686 18.7427 26.0156 17.0266 26.0156 15.1445H25.0156ZM24.099 19.889C23.4972 21.2932 22.6772 22.5385 21.6382 23.6275L22.3618 24.3178C23.4842 23.1412 24.37 21.7953 25.0182 20.2829L24.099 19.889ZM21.6361 23.6297C20.6042 24.7246 19.3937 25.6711 18.0015 26.4685L18.4985 27.3362C19.9709 26.4929 21.2604 25.4863 22.3639 24.3156L21.6361 23.6297ZM18.0045 26.4668C16.6012 27.2577 15.1209 27.9086 13.563 28.4194L13.8745 29.3696C15.4937 28.8388 17.0342 28.1616 18.4955 27.3379L18.0045 26.4668ZM13.563 28.4194C12.0011 28.9315 10.4074 29.3091 8.78149 29.5524L8.92945 30.5414C10.6109 30.2898 12.2593 29.8992 13.8745 29.3696L13.563 28.4194ZM8.78149 29.5524C7.15021 29.7964 5.57995 29.918 4.07031 29.918V30.918C5.63359 30.918 7.25344 30.7921 8.92945 30.5414L8.78149 29.5524ZM4.07031 29.918C3.55781 29.918 3.05203 29.9052 2.55295 29.8796L2.50174 30.8783C3.01828 30.9047 3.54115 30.918 4.07031 30.918V29.918ZM2.55295 29.8796C2.06295 29.8544 1.60095 29.8043 1.16651 29.7298L0.997549 30.7155C1.47457 30.7972 1.97611 30.8513 2.50174 30.8783L2.55295 29.8796ZM1.58186 30.2095L0.82014 1.20562L-0.179515 1.23188L0.582204 30.2358L1.58186 30.2095ZM0.358661 1.71728C1.36894 1.63956 2.33964 1.58133 3.27082 1.54254L3.22918 0.543402C2.28536 0.582728 1.30294 0.641686 0.281964 0.720223L0.358661 1.71728ZM3.27082 1.54254C4.20234 1.50372 5.07425 1.48438 5.88672 1.48438V0.484375C5.05857 0.484375 4.17266 0.504091 3.22918 0.543402L3.27082 1.54254ZM5.88672 1.48438C7.31854 1.48438 8.79672 1.54242 10.3213 1.65871L10.3974 0.661604C8.84911 0.543515 7.34552 0.484375 5.88672 0.484375V1.48438ZM10.3256 1.65901C11.8346 1.76132 13.2972 1.98499 14.7139 2.32958L14.9502 1.35792C13.4762 0.999384 11.9571 0.767328 10.3932 0.661301L10.3256 1.65901ZM14.719 2.3308C16.1412 2.66096 17.4783 3.13651 18.7313 3.75671L19.1749 2.86048C17.8499 2.20464 16.4395 1.70362 14.9451 1.3567L14.719 2.3308ZM18.7331 3.75759C19.9798 4.36846 21.0618 5.17718 21.9824 6.1849L22.7207 5.51041C21.7143 4.40875 20.5306 3.52477 19.1731 2.8596L18.7331 3.75759ZM21.9868 6.18963C22.9116 7.17613 23.647 8.39872 24.1869 9.86779L25.1256 9.52283C24.5457 7.94503 23.7446 6.60251 22.7163 5.50569L21.9868 6.18963ZM24.1883 9.87131C24.7348 11.3246 25.0156 13.0784 25.0156 15.1445H26.0156C26.0156 12.9919 25.7236 11.1129 25.1242 9.51931L24.1883 9.87131ZM22.3435 14.9338C22.303 13.6235 22.0796 12.4275 21.6659 11.3518L20.7325 11.7107C21.1 12.6662 21.3064 13.7489 21.344 14.9647L22.3435 14.9338ZM21.6666 11.3537C21.2565 10.2738 20.6934 9.31732 19.9755 8.48894L19.2198 9.14387C19.8561 9.87799 20.3606 10.7314 20.7318 11.7088L21.6666 11.3537ZM19.9786 8.49258C19.2801 7.67074 18.4592 6.96664 17.5184 6.38034L16.9895 7.22903C17.8455 7.76253 18.5871 8.39957 19.2167 9.14023L19.9786 8.49258ZM17.5227 6.38311C16.5907 5.78874 15.5857 5.30337 14.5089 4.92651L14.1786 5.87037C15.1852 6.22267 16.1203 6.6748 16.9851 7.22627L17.5227 6.38311ZM14.5089 4.92651C13.4359 4.55095 12.3112 4.2767 11.1356 4.10302L10.9894 5.09229C12.1055 5.25716 13.1683 5.51676 14.1786 5.87037L14.5089 4.92651ZM11.1356 4.10302C9.96553 3.93018 8.78877 3.84375 7.60547 3.84375V4.84375C8.73988 4.84375 9.8678 4.92659 10.9894 5.09229L11.1356 4.10302ZM7.60547 3.84375C7.09765 3.84375 6.55861 3.86379 5.98864 3.90356L6.05824 4.90113C6.60806 4.86277 7.1237 4.84375 7.60547 4.84375V3.84375ZM5.99965 3.90291C5.44152 3.92949 4.8646 3.97594 4.269 4.04212L4.37943 5.036C4.95571 4.97197 5.51161 4.92728 6.04722 4.90178L5.99965 3.90291ZM3.82441 4.55276L4.42988 26.6426L5.4295 26.6152L4.82403 4.52536L3.82441 4.55276ZM4.87127 27.1255C5.11188 27.1538 5.35274 27.168 5.59375 27.168V26.168C5.39205 26.168 5.19021 26.1561 4.98811 26.1323L4.87127 27.1255ZM5.59375 27.168C5.59421 27.168 5.59467 27.168 5.59512 27.168C5.59558 27.168 5.59604 27.168 5.5965 27.168C5.59695 27.168 5.59741 27.168 5.59787 27.168C5.59833 27.168 5.59878 27.168 5.59924 27.168C5.5997 27.168 5.60016 27.168 5.60061 27.168C5.60107 27.168 5.60153 27.168 5.60199 27.168C5.60244 27.168 5.6029 27.168 5.60336 27.168C5.60382 27.168 5.60427 27.168 5.60473 27.168C5.60519 27.168 5.60565 27.168 5.6061 27.168C5.60656 27.168 5.60702 27.168 5.60748 27.168C5.60793 27.168 5.60839 27.168 5.60885 27.168C5.6093 27.168 5.60976 27.168 5.61022 27.168C5.61068 27.168 5.61113 27.168 5.61159 27.168C5.61205 27.168 5.6125 27.168 5.61296 27.168C5.61342 27.168 5.61388 27.168 5.61433 27.168C5.61479 27.168 5.61525 27.168 5.6157 27.168C5.61616 27.168 5.61662 27.168 5.61707 27.168C5.61753 27.168 5.61799 27.168 5.61845 27.168C5.6189 27.168 5.61936 27.168 5.61982 27.168C5.62027 27.168 5.62073 27.168 5.62119 27.168C5.62164 27.168 5.6221 27.168 5.62256 27.168C5.62301 27.168 5.62347 27.168 5.62393 27.168C5.62438 27.168 5.62484 27.168 5.6253 27.168C5.62575 27.168 5.62621 27.168 5.62667 27.168C5.62712 27.168 5.62758 27.168 5.62804 27.168C5.62849 27.168 5.62895 27.168 5.62941 27.168C5.62986 27.168 5.63032 27.168 5.63077 27.168C5.63123 27.168 5.63169 27.168 5.63214 27.168C5.6326 27.168 5.63306 27.168 5.63351 27.168C5.63397 27.168 5.63443 27.168 5.63488 27.168C5.63534 27.168 5.63579 27.168 5.63625 27.168C5.63671 27.168 5.63716 27.168 5.63762 27.168C5.63808 27.168 5.63853 27.168 5.63899 27.168C5.63944 27.168 5.6399 27.168 5.64036 27.168C5.64081 27.168 5.64127 27.168 5.64172 27.168C5.64218 27.168 5.64264 27.168 5.64309 27.168C5.64355 27.168 5.644 27.168 5.64446 27.168C5.64492 27.168 5.64537 27.168 5.64583 27.168C5.64628 27.168 5.64674 27.168 5.6472 27.168C5.64765 27.168 5.64811 27.168 5.64856 27.168C5.64902 27.168 5.64947 27.168 5.64993 27.168C5.65039 27.168 5.65084 27.168 5.6513 27.168C5.65175 27.168 5.65221 27.168 5.65266 27.168C5.65312 27.168 5.65357 27.168 5.65403 27.168C5.65449 27.168 5.65494 27.168 5.6554 27.168C5.65585 27.168 5.65631 27.168 5.65676 27.168C5.65722 27.168 5.65767 27.168 5.65813 27.168C5.65859 27.168 5.65904 27.168 5.6595 27.168C5.65995 27.168 5.66041 27.168 5.66086 27.168C5.66132 27.168 5.66177 27.168 5.66223 27.168C5.66268 27.168 5.66314 27.168 5.66359 27.168C5.66405 27.168 5.6645 27.168 5.66496 27.168C5.66541 27.168 5.66587 27.168 5.66633 27.168C5.66678 27.168 5.66724 27.168 5.66769 27.168C5.66815 27.168 5.6686 27.168 5.66906 27.168C5.66951 27.168 5.66997 27.168 5.67042 27.168C5.67088 27.168 5.67133 27.168 5.67179 27.168C5.67224 27.168 5.6727 27.168 5.67315 27.168C5.67361 27.168 5.67406 27.168 5.67451 27.168C5.67497 27.168 5.67542 27.168 5.67588 27.168C5.67633 27.168 5.67679 27.168 5.67724 27.168C5.6777 27.168 5.67815 27.168 5.67861 27.168C5.67906 27.168 5.67952 27.168 5.67997 27.168C5.68043 27.168 5.68088 27.168 5.68134 27.168C5.68179 27.168 5.68224 27.168 5.6827 27.168C5.68315 27.168 5.68361 27.168 5.68406 27.168C5.68452 27.168 5.68497 27.168 5.68543 27.168C5.68588 27.168 5.68633 27.168 5.68679 27.168C5.68724 27.168 5.6877 27.168 5.68815 27.168C5.68861 27.168 5.68906 27.168 5.68952 27.168C5.68997 27.168 5.69042 27.168 5.69088 27.168C5.69133 27.168 5.69179 27.168 5.69224 27.168C5.69269 27.168 5.69315 27.168 5.6936 27.168C5.69406 27.168 5.69451 27.168 5.69497 27.168C5.69542 27.168 5.69587 27.168 5.69633 27.168C5.69678 27.168 5.69724 27.168 5.69769 27.168C5.69814 27.168 5.6986 27.168 5.69905 27.168C5.69951 27.168 5.69996 27.168 5.70041 27.168C5.70087 27.168 5.70132 27.168 5.70177 27.168C5.70223 27.168 5.70268 27.168 5.70314 27.168C5.70359 27.168 5.70404 27.168 5.7045 27.168C5.70495 27.168 5.70541 27.168 5.70586 27.168C5.70631 27.168 5.70677 27.168 5.70722 27.168C5.70767 27.168 5.70813 27.168 5.70858 27.168C5.70903 27.168 5.70949 27.168 5.70994 27.168C5.71039 27.168 5.71085 27.168 5.7113 27.168C5.71176 27.168 5.71221 27.168 5.71266 27.168C5.71312 27.168 5.71357 27.168 5.71402 27.168C5.71448 27.168 5.71493 27.168 5.71538 27.168C5.71584 27.168 5.71629 27.168 5.71674 27.168C5.7172 27.168 5.71765 27.168 5.7181 27.168C5.71856 27.168 5.71901 27.168 5.71946 27.168C5.71992 27.168 5.72037 27.168 5.72082 27.168C5.72127 27.168 5.72173 27.168 5.72218 27.168C5.72263 27.168 5.72309 27.168 5.72354 27.168C5.72399 27.168 5.72445 27.168 5.7249 27.168C5.72535 27.168 5.72581 27.168 5.72626 27.168C5.72671 27.168 5.72716 27.168 5.72762 27.168C5.72807 27.168 5.72852 27.168 5.72898 27.168C5.72943 27.168 5.72988 27.168 5.73033 27.168C5.73079 27.168 5.73124 27.168 5.73169 27.168C5.73215 27.168 5.7326 27.168 5.73305 27.168C5.7335 27.168 5.73396 27.168 5.73441 27.168C5.73486 27.168 5.73531 27.168 5.73577 27.168C5.73622 27.168 5.73667 27.168 5.73712 27.168C5.73758 27.168 5.73803 27.168 5.73848 27.168C5.73893 27.168 5.73939 27.168 5.73984 27.168C5.74029 27.168 5.74074 27.168 5.7412 27.168C5.74165 27.168 5.7421 27.168 5.74255 27.168C5.74301 27.168 5.74346 27.168 5.74391 27.168C5.74436 27.168 5.74482 27.168 5.74527 27.168C5.74572 27.168 5.74617 27.168 5.74662 27.168C5.74708 27.168 5.74753 27.168 5.74798 27.168C5.74843 27.168 5.74888 27.168 5.74934 27.168C5.74979 27.168 5.75024 27.168 5.75069 27.168C5.75115 27.168 5.7516 27.168 5.75205 27.168C5.7525 27.168 5.75295 27.168 5.75341 27.168C5.75386 27.168 5.75431 27.168 5.75476 27.168C5.75521 27.168 5.75566 27.168 5.75612 27.168C5.75657 27.168 5.75702 27.168 5.75747 27.168C5.75792 27.168 5.75838 27.168 5.75883 27.168C5.75928 27.168 5.75973 27.168 5.76018 27.168C5.76063 27.168 5.76109 27.168 5.76154 27.168C5.76199 27.168 5.76244 27.168 5.76289 27.168C5.76334 27.168 5.7638 27.168 5.76425 27.168C5.7647 27.168 5.76515 27.168 5.7656 27.168C5.76605 27.168 5.7665 27.168 5.76696 27.168C5.76741 27.168 5.76786 27.168 5.76831 27.168C5.76876 27.168 5.76921 27.168 5.76966 27.168C5.77012 27.168 5.77057 27.168 5.77102 27.168C5.77147 27.168 5.77192 27.168 5.77237 27.168C5.77282 27.168 5.77328 27.168 5.77373 27.168C5.77418 27.168 5.77463 27.168 5.77508 27.168C5.77553 27.168 5.77598 27.168 5.77643 27.168C5.77688 27.168 5.77734 27.168 5.77779 27.168C5.77824 27.168 5.77869 27.168 5.77914 27.168C5.77959 27.168 5.78004 27.168 5.78049 27.168C5.78094 27.168 5.78139 27.168 5.78185 27.168C5.7823 27.168 5.78275 27.168 5.7832 27.168C5.78365 27.168 5.7841 27.168 5.78455 27.168C5.785 27.168 5.78545 27.168 5.7859 27.168C5.78635 27.168 5.7868 27.168 5.78725 27.168C5.78771 27.168 5.78816 27.168 5.78861 27.168C5.78906 27.168 5.78951 27.168 5.78996 27.168C5.79041 27.168 5.79086 27.168 5.79131 27.168C5.79176 27.168 5.79221 27.168 5.79266 27.168C5.79311 27.168 5.79356 27.168 5.79401 27.168C5.79446 27.168 5.79491 27.168 5.79537 27.168C5.79582 27.168 5.79627 27.168 5.79672 27.168C5.79717 27.168 5.79762 27.168 5.79807 27.168C5.79852 27.168 5.79897 27.168 5.79942 27.168C5.79987 27.168 5.80032 27.168 5.80077 27.168C5.80122 27.168 5.80167 27.168 5.80212 27.168C5.80257 27.168 5.80302 27.168 5.80347 27.168C5.80392 27.168 5.80437 27.168 5.80482 27.168C5.80527 27.168 5.80572 27.168 5.80617 27.168C5.80662 27.168 5.80707 27.168 5.80752 27.168C5.80797 27.168 5.80842 27.168 5.80887 27.168C5.80932 27.168 5.80977 27.168 5.81022 27.168C5.81067 27.168 5.81112 27.168 5.81157 27.168C5.81202 27.168 5.81247 27.168 5.81292 27.168C5.81337 27.168 5.81382 27.168 5.81427 27.168C5.81472 27.168 5.81517 27.168 5.81562 27.168C5.81607 27.168 5.81652 27.168 5.81697 27.168C5.81742 27.168 5.81787 27.168 5.81831 27.168C5.81876 27.168 5.81921 27.168 5.81966 27.168C5.82011 27.168 5.82056 27.168 5.82101 27.168C5.82146 27.168 5.82191 27.168 5.82236 27.168C5.82281 27.168 5.82326 27.168 5.82371 27.168C5.82416 27.168 5.82461 27.168 5.82506 27.168C5.82551 27.168 5.82595 27.168 5.8264 27.168C5.82685 27.168 5.8273 27.168 5.82775 27.168C5.8282 27.168 5.82865 27.168 5.8291 27.168C5.82955 27.168 5.83 27.168 5.83045 27.168C5.8309 27.168 5.83135 27.168 5.83179 27.168C5.83224 27.168 5.83269 27.168 5.83314 27.168C5.83359 27.168 5.83404 27.168 5.83449 27.168C5.83494 27.168 5.83539 27.168 5.83584 27.168C5.83628 27.168 5.83673 27.168 5.83718 27.168C5.83763 27.168 5.83808 27.168 5.83853 27.168C5.83898 27.168 5.83943 27.168 5.83987 27.168C5.84032 27.168 5.84077 27.168 5.84122 27.168C5.84167 27.168 5.84212 27.168 5.84257 27.168C5.84302 27.168 5.84346 27.168 5.84391 27.168C5.84436 27.168 5.84481 27.168 5.84526 27.168C5.84571 27.168 5.84616 27.168 5.8466 27.168C5.84705 27.168 5.8475 27.168 5.84795 27.168C5.8484 27.168 5.84885 27.168 5.8493 27.168C5.84974 27.168 5.85019 27.168 5.85064 27.168C5.85109 27.168 5.85154 27.168 5.85199 27.168C5.85243 27.168 5.85288 27.168 5.85333 27.168C5.85378 27.168 5.85423 27.168 5.85468 27.168C5.85512 27.168 5.85557 27.168 5.85602 27.168C5.85647 27.168 5.85692 27.168 5.85736 27.168C5.85781 27.168 5.85826 27.168 5.85871 27.168C5.85916 27.168 5.8596 27.168 5.86005 27.168C5.8605 27.168 5.86095 27.168 5.8614 27.168C5.86184 27.168 5.86229 27.168 5.86274 27.168C5.86319 27.168 5.86364 27.168 5.86408 27.168C5.86453 27.168 5.86498 27.168 5.86543 27.168C5.86588 27.168 5.86632 27.168 5.86677 27.168C5.86722 27.168 5.86767 27.168 5.86811 27.168C5.86856 27.168 5.86901 27.168 5.86946 27.168C5.86991 27.168 5.87035 27.168 5.8708 27.168C5.87125 27.168 5.8717 27.168 5.87214 27.168C5.87259 27.168 5.87304 27.168 5.87349 27.168C5.87393 27.168 5.87438 27.168 5.87483 27.168C5.87528 27.168 5.87572 27.168 5.87617 27.168C5.87662 27.168 5.87707 27.168 5.87751 27.168C5.87796 27.168 5.87841 27.168 5.87886 27.168C5.8793 27.168 5.87975 27.168 5.8802 27.168C5.88064 27.168 5.88109 27.168 5.88154 27.168C5.88199 27.168 5.88243 27.168 5.88288 27.168C5.88333 27.168 5.88378 27.168 5.88422 27.168C5.88467 27.168 5.88512 27.168 5.88556 27.168C5.88601 27.168 5.88646 27.168 5.8869 27.168C5.88735 27.168 5.8878 27.168 5.88825 27.168C5.88869 27.168 5.88914 27.168 5.88959 27.168C5.89003 27.168 5.89048 27.168 5.89093 27.168C5.89137 27.168 5.89182 27.168 5.89227 27.168C5.89271 27.168 5.89316 27.168 5.89361 27.168C5.89406 27.168 5.8945 27.168 5.89495 27.168C5.8954 27.168 5.89584 27.168 5.89629 27.168C5.89674 27.168 5.89718 27.168 5.89763 27.168C5.89808 27.168 5.89852 27.168 5.89897 27.168C5.89942 27.168 5.89986 27.168 5.90031 27.168C5.90075 27.168 5.9012 27.168 5.90165 27.168C5.90209 27.168 5.90254 27.168 5.90299 27.168C5.90343 27.168 5.90388 27.168 5.90433 27.168C5.90477 27.168 5.90522 27.168 5.90567 27.168C5.90611 27.168 5.90656 27.168 5.907 27.168C5.90745 27.168 5.9079 27.168 5.90834 27.168C5.90879 27.168 5.90924 27.168 5.90968 27.168C5.91013 27.168 5.91057 27.168 5.91102 27.168C5.91147 27.168 5.91191 27.168 5.91236 27.168C5.9128 27.168 5.91325 27.168 5.9137 27.168C5.91414 27.168 5.91459 27.168 5.91504 27.168C5.91548 27.168 5.91593 27.168 5.91637 27.168C5.91682 27.168 5.91726 27.168 5.91771 27.168C5.91816 27.168 5.9186 27.168 5.91905 27.168C5.91949 27.168 5.91994 27.168 5.92039 27.168C5.92083 27.168 5.92128 27.168 5.92172 27.168C5.92217 27.168 5.92261 27.168 5.92306 27.168C5.92351 27.168 5.92395 27.168 5.9244 27.168C5.92484 27.168 5.92529 27.168 5.92573 27.168C5.92618 27.168 5.92663 27.168 5.92707 27.168C5.92752 27.168 5.92796 27.168 5.92841 27.168C5.92885 27.168 5.9293 27.168 5.92974 27.168C5.93019 27.168 5.93063 27.168 5.93108 27.168C5.93153 27.168 5.93197 27.168 5.93242 27.168C5.93286 27.168 5.93331 27.168 5.93375 27.168C5.9342 27.168 5.93464 27.168 5.93509 27.168C5.93553 27.168 5.93598 27.168 5.93642 27.168C5.93687 27.168 5.93731 27.168 5.93776 27.168C5.9382 27.168 5.93865 27.168 5.93909 27.168C5.93954 27.168 5.93998 27.168 5.94043 27.168C5.94087 27.168 5.94132 27.168 5.94176 27.168C5.94221 27.168 5.94265 27.168 5.9431 27.168C5.94354 27.168 5.94399 27.168 5.94443 27.168C5.94488 27.168 5.94532 27.168 5.94577 27.168C5.94621 27.168 5.94666 27.168 5.9471 27.168C5.94755 27.168 5.94799 27.168 5.94844 27.168C5.94888 27.168 5.94933 27.168 5.94977 27.168C5.95022 27.168 5.95066 27.168 5.95111 27.168C5.95155 27.168 5.952 27.168 5.95244 27.168C5.95288 27.168 5.95333 27.168 5.95377 27.168C5.95422 27.168 5.95466 27.168 5.95511 27.168C5.95555 27.168 5.956 27.168 5.95644 27.168C5.95689 27.168 5.95733 27.168 5.95777 27.168C5.95822 27.168 5.95866 27.168 5.95911 27.168C5.95955 27.168 5.96 27.168 5.96044 27.168C5.96088 27.168 5.96133 27.168 5.96177 27.168C5.96222 27.168 5.96266 27.168 5.96311 27.168C5.96355 27.168 5.96399 27.168 5.96444 27.168C5.96488 27.168 5.96533 27.168 5.96577 27.168C5.96621 27.168 5.96666 27.168 5.9671 27.168C5.96755 27.168 5.96799 27.168 5.96843 27.168C5.96888 27.168 5.96932 27.168 5.96977 27.168C5.97021 27.168 5.97065 27.168 5.9711 27.168C5.97154 27.168 5.97199 27.168 5.97243 27.168C5.97287 27.168 5.97332 27.168 5.97376 27.168C5.97421 27.168 5.97465 27.168 5.97509 27.168C5.97554 27.168 5.97598 27.168 5.97642 27.168C5.97687 27.168 5.97731 27.168 5.97776 27.168C5.9782 27.168 5.97864 27.168 5.97909 27.168C5.97953 27.168 5.97997 27.168 5.98042 27.168C5.98086 27.168 5.9813 27.168 5.98175 27.168C5.98219 27.168 5.98263 27.168 5.98308 27.168C5.98352 27.168 5.98396 27.168 5.98441 27.168C5.98485 27.168 5.9853 27.168 5.98574 27.168C5.98618 27.168 5.98663 27.168 5.98707 27.168C5.98751 27.168 5.98796 27.168 5.9884 27.168C5.98884 27.168 5.98928 27.168 5.98973 27.168C5.99017 27.168 5.99061 27.168 5.99106 27.168C5.9915 27.168 5.99194 27.168 5.99239 27.168C5.99283 27.168 5.99327 27.168 5.99372 27.168C5.99416 27.168 5.9946 27.168 5.99505 27.168C5.99549 27.168 5.99593 27.168 5.99637 27.168C5.99682 27.168 5.99726 27.168 5.9977 27.168C5.99815 27.168 5.99859 27.168 5.99903 27.168C5.99947 27.168 5.99992 27.168 6.00036 27.168C6.0008 27.168 6.00125 27.168 6.00169 27.168C6.00213 27.168 6.00257 27.168 6.00302 27.168C6.00346 27.168 6.0039 27.168 6.00434 27.168C6.00479 27.168 6.00523 27.168 6.00567 27.168C6.00612 27.168 6.00656 27.168 6.007 27.168C6.00744 27.168 6.00789 27.168 6.00833 27.168C6.00877 27.168 6.00921 27.168 6.00966 27.168C6.0101 27.168 6.01054 27.168 6.01098 27.168C6.01143 27.168 6.01187 27.168 6.01231 27.168C6.01275 27.168 6.01319 27.168 6.01364 27.168C6.01408 27.168 6.01452 27.168 6.01496 27.168C6.01541 27.168 6.01585 27.168 6.01629 27.168C6.01673 27.168 6.01718 27.168 6.01762 27.168C6.01806 27.168 6.0185 27.168 6.01894 27.168C6.01939 27.168 6.01983 27.168 6.02027 27.168C6.02071 27.168 6.02115 27.168 6.0216 27.168C6.02204 27.168 6.02248 27.168 6.02292 27.168C6.02336 27.168 6.02381 27.168 6.02425 27.168C6.02469 27.168 6.02513 27.168 6.02557 27.168C6.02602 27.168 6.02646 27.168 6.0269 27.168C6.02734 27.168 6.02778 27.168 6.02822 27.168C6.02867 27.168 6.02911 27.168 6.02955 27.168C6.02999 27.168 6.03043 27.168 6.03087 27.168C6.03132 27.168 6.03176 27.168 6.0322 27.168C6.03264 27.168 6.03308 27.168 6.03352 27.168C6.03397 27.168 6.03441 27.168 6.03485 27.168C6.03529 27.168 6.03573 27.168 6.03617 27.168C6.03662 27.168 6.03706 27.168 6.0375 27.168C6.03794 27.168 6.03838 27.168 6.03882 27.168C6.03926 27.168 6.03971 27.168 6.04015 27.168C6.04059 27.168 6.04103 27.168 6.04147 27.168C6.04191 27.168 6.04235 27.168 6.04279 27.168C6.04324 27.168 6.04368 27.168 6.04412 27.168C6.04456 27.168 6.045 27.168 6.04544 27.168C6.04588 27.168 6.04632 27.168 6.04676 27.168C6.04721 27.168 6.04765 27.168 6.04809 27.168C6.04853 27.168 6.04897 27.168 6.04941 27.168C6.04985 27.168 6.05029 27.168 6.05073 27.168C6.05117 27.168 6.05162 27.168 6.05206 27.168C6.0525 27.168 6.05294 27.168 6.05338 27.168C6.05382 27.168 6.05426 27.168 6.0547 27.168C6.05514 27.168 6.05558 27.168 6.05602 27.168C6.05646 27.168 6.0569 27.168 6.05735 27.168C6.05779 27.168 6.05823 27.168 6.05867 27.168C6.05911 27.168 6.05955 27.168 6.05999 27.168C6.06043 27.168 6.06087 27.168 6.06131 27.168C6.06175 27.168 6.06219 27.168 6.06263 27.168C6.06307 27.168 6.06351 27.168 6.06395 27.168C6.06439 27.168 6.06483 27.168 6.06527 27.168C6.06572 27.168 6.06616 27.168 6.0666 27.168C6.06704 27.168 6.06748 27.168 6.06792 27.168C6.06836 27.168 6.0688 27.168 6.06924 27.168C6.06968 27.168 6.07012 27.168 6.07056 27.168C6.071 27.168 6.07144 27.168 6.07188 27.168C6.07232 27.168 6.07276 27.168 6.0732 27.168C6.07364 27.168 6.07408 27.168 6.07452 27.168C6.07496 27.168 6.0754 27.168 6.07584 27.168C6.07628 27.168 6.07672 27.168 6.07716 27.168C6.0776 27.168 6.07804 27.168 6.07848 27.168C6.07892 27.168 6.07936 27.168 6.0798 27.168C6.08024 27.168 6.08068 27.168 6.08112 27.168C6.08156 27.168 6.082 27.168 6.08244 27.168C6.08288 27.168 6.08332 27.168 6.08376 27.168C6.0842 27.168 6.08464 27.168 6.08508 27.168C6.08551 27.168 6.08595 27.168 6.08639 27.168C6.08683 27.168 6.08727 27.168 6.08771 27.168C6.08815 27.168 6.08859 27.168 6.08903 27.168C6.08947 27.168 6.08991 27.168 6.09035 27.168C6.09079 27.168 6.09123 27.168 6.09167 27.168C6.09211 27.168 6.09255 27.168 6.09299 27.168C6.09343 27.168 6.09386 27.168 6.0943 27.168C6.09474 27.168 6.09518 27.168 6.09562 27.168C6.09606 27.168 6.0965 27.168 6.09694 27.168C6.09738 27.168 6.09782 27.168 6.09826 27.168C6.0987 27.168 6.09914 27.168 6.09957 27.168C6.10001 27.168 6.10045 27.168 6.10089 27.168C6.10133 27.168 6.10177 27.168 6.10221 27.168C6.10265 27.168 6.10309 27.168 6.10353 27.168C6.10396 27.168 6.1044 27.168 6.10484 27.168C6.10528 27.168 6.10572 27.168 6.10616 27.168C6.1066 27.168 6.10704 27.168 6.10747 27.168C6.10791 27.168 6.10835 27.168 6.10879 27.168C6.10923 27.168 6.10967 27.168 6.11011 27.168C6.11055 27.168 6.11098 27.168 6.11142 27.168C6.11186 27.168 6.1123 27.168 6.11274 27.168C6.11318 27.168 6.11362 27.168 6.11405 27.168C6.11449 27.168 6.11493 27.168 6.11537 27.168C6.11581 27.168 6.11625 27.168 6.11669 27.168C6.11712 27.168 6.11756 27.168 6.118 27.168C6.11844 27.168 6.11888 27.168 6.11932 27.168C6.11975 27.168 6.12019 27.168 6.12063 27.168C6.12107 27.168 6.12151 27.168 6.12195 27.168C6.12238 27.168 6.12282 27.168 6.12326 27.168C6.1237 27.168 6.12414 27.168 6.12458 27.168C6.12501 27.168 6.12545 27.168 6.12589 27.168C6.12633 27.168 6.12677 27.168 6.1272 27.168C6.12764 27.168 6.12808 27.168 6.12852 27.168C6.12896 27.168 6.12939 27.168 6.12983 27.168C6.13027 27.168 6.13071 27.168 6.13115 27.168C6.13158 27.168 6.13202 27.168 6.13246 27.168C6.1329 27.168 6.13333 27.168 6.13377 27.168C6.13421 27.168 6.13465 27.168 6.13509 27.168C6.13552 27.168 6.13596 27.168 6.1364 27.168C6.13684 27.168 6.13727 27.168 6.13771 27.168C6.13815 27.168 6.13859 27.168 6.13902 27.168C6.13946 27.168 6.1399 27.168 6.14034 27.168C6.14078 27.168 6.14121 27.168 6.14165 27.168C6.14209 27.168 6.14253 27.168 6.14296 27.168C6.1434 27.168 6.14384 27.168 6.14427 27.168C6.14471 27.168 6.14515 27.168 6.14559 27.168C6.14602 27.168 6.14646 27.168 6.1469 27.168C6.14734 27.168 6.14777 27.168 6.14821 27.168C6.14865 27.168 6.14909 27.168 6.14952 27.168C6.14996 27.168 6.1504 27.168 6.15083 27.168C6.15127 27.168 6.15171 27.168 6.15215 27.168C6.15258 27.168 6.15302 27.168 6.15346 27.168C6.15389 27.168 6.15433 27.168 6.15477 27.168C6.1552 27.168 6.15564 27.168 6.15608 27.168C6.15652 27.168 6.15695 27.168 6.15739 27.168C6.15783 27.168 6.15826 27.168 6.1587 27.168C6.15914 27.168 6.15957 27.168 6.16001 27.168C6.16045 27.168 6.16088 27.168 6.16132 27.168C6.16176 27.168 6.16219 27.168 6.16263 27.168C6.16307 27.168 6.1635 27.168 6.16394 27.168C6.16438 27.168 6.16481 27.168 6.16525 27.168C6.16569 27.168 6.16612 27.168 6.16656 27.168C6.167 27.168 6.16743 27.168 6.16787 27.168C6.16831 27.168 6.16874 27.168 6.16918 27.168C6.16962 27.168 6.17005 27.168 6.17049 27.168C6.17093 27.168 6.17136 27.168 6.1718 27.168C6.17223 27.168 6.17267 27.168 6.17311 27.168C6.17354 27.168 6.17398 27.168 6.17442 27.168C6.17485 27.168 6.17529 27.168 6.17572 27.168C6.17616 27.168 6.1766 27.168 6.17703 27.168C6.17747 27.168 6.17791 27.168 6.17834 27.168C6.17878 27.168 6.17921 27.168 6.17965 27.168C6.18009 27.168 6.18052 27.168 6.18096 27.168C6.18139 27.168 6.18183 27.168 6.18227 27.168C6.1827 27.168 6.18314 27.168 6.18357 27.168C6.18401 27.168 6.18445 27.168 6.18488 27.168C6.18532 27.168 6.18575 27.168 6.18619 27.168C6.18662 27.168 6.18706 27.168 6.1875 27.168C6.18793 27.168 6.18837 27.168 6.1888 27.168C6.18924 27.168 6.18967 27.168 6.19011 27.168C6.19055 27.168 6.19098 27.168 6.19142 27.168C6.19185 27.168 6.19229 27.168 6.19272 27.168C6.19316 27.168 6.1936 27.168 6.19403 27.168C6.19447 27.168 6.1949 27.168 6.19534 27.168C6.19577 27.168 6.19621 27.168 6.19664 27.168C6.19708 27.168 6.19751 27.168 6.19795 27.168C6.19839 27.168 6.19882 27.168 6.19926 27.168C6.19969 27.168 6.20013 27.168 6.20056 27.168C6.201 27.168 6.20143 27.168 6.20187 27.168C6.2023 27.168 6.20274 27.168 6.20317 27.168C6.20361 27.168 6.20404 27.168 6.20448 27.168C6.20491 27.168 6.20535 27.168 6.20578 27.168C6.20622 27.168 6.20665 27.168 6.20709 27.168C6.20752 27.168 6.20796 27.168 6.20839 27.168C6.20883 27.168 6.20926 27.168 6.2097 27.168C6.21013 27.168 6.21057 27.168 6.211 27.168C6.21144 27.168 6.21187 27.168 6.21231 27.168C6.21274 27.168 6.21318 27.168 6.21361 27.168C6.21405 27.168 6.21448 27.168 6.21492 27.168C6.21535 27.168 6.21579 27.168 6.21622 27.168C6.21665 27.168 6.21709 27.168 6.21752 27.168C6.21796 27.168 6.21839 27.168 6.21883 27.168C6.21926 27.168 6.2197 27.168 6.22013 27.168C6.22057 27.168 6.221 27.168 6.22144 27.168C6.22187 27.168 6.2223 27.168 6.22274 27.168C6.22317 27.168 6.22361 27.168 6.22404 27.168C6.22448 27.168 6.22491 27.168 6.22534 27.168C6.22578 27.168 6.22621 27.168 6.22665 27.168C6.22708 27.168 6.22752 27.168 6.22795 27.168C6.22838 27.168 6.22882 27.168 6.22925 27.168C6.22969 27.168 6.23012 27.168 6.23056 27.168C6.23099 27.168 6.23142 27.168 6.23186 27.168C6.23229 27.168 6.23273 27.168 6.23316 27.168C6.23359 27.168 6.23403 27.168 6.23446 27.168C6.2349 27.168 6.23533 27.168 6.23576 27.168C6.2362 27.168 6.23663 27.168 6.23707 27.168C6.2375 27.168 6.23793 27.168 6.23837 27.168C6.2388 27.168 6.23923 27.168 6.23967 27.168C6.2401 27.168 6.24054 27.168 6.24097 27.168C6.2414 27.168 6.24184 27.168 6.24227 27.168C6.2427 27.168 6.24314 27.168 6.24357 27.168C6.24401 27.168 6.24444 27.168 6.24487 27.168C6.24531 27.168 6.24574 27.168 6.24617 27.168C6.24661 27.168 6.24704 27.168 6.24747 27.168C6.24791 27.168 6.24834 27.168 6.24877 27.168C6.24921 27.168 6.24964 27.168 6.25007 27.168C6.25051 27.168 6.25094 27.168 6.25137 27.168C6.25181 27.168 6.25224 27.168 6.25267 27.168C6.25311 27.168 6.25354 27.168 6.25397 27.168C6.25441 27.168 6.25484 27.168 6.25527 27.168C6.25571 27.168 6.25614 27.168 6.25657 27.168C6.25701 27.168 6.25744 27.168 6.25787 27.168C6.25831 27.168 6.25874 27.168 6.25917 27.168C6.2596 27.168 6.26004 27.168 6.26047 27.168C6.2609 27.168 6.26134 27.168 6.26177 27.168C6.2622 27.168 6.26263 27.168 6.26307 27.168C6.2635 27.168 6.26393 27.168 6.26437 27.168C6.2648 27.168 6.26523 27.168 6.26566 27.168C6.2661 27.168 6.26653 27.168 6.26696 27.168C6.2674 27.168 6.26783 27.168 6.26826 27.168C6.26869 27.168 6.26913 27.168 6.26956 27.168C6.26999 27.168 6.27042 27.168 6.27086 27.168C6.27129 27.168 6.27172 27.168 6.27215 27.168C6.27259 27.168 6.27302 27.168 6.27345 27.168C6.27388 27.168 6.27432 27.168 6.27475 27.168C6.27518 27.168 6.27561 27.168 6.27605 27.168C6.27648 27.168 6.27691 27.168 6.27734 27.168V26.168C6.27691 26.168 6.27648 26.168 6.27605 26.168C6.27561 26.168 6.27518 26.168 6.27475 26.168C6.27432 26.168 6.27388 26.168 6.27345 26.168C6.27302 26.168 6.27259 26.168 6.27215 26.168C6.27172 26.168 6.27129 26.168 6.27086 26.168C6.27042 26.168 6.26999 26.168 6.26956 26.168C6.26913 26.168 6.26869 26.168 6.26826 26.168C6.26783 26.168 6.2674 26.168 6.26696 26.168C6.26653 26.168 6.2661 26.168 6.26566 26.168C6.26523 26.168 6.2648 26.168 6.26437 26.168C6.26393 26.168 6.2635 26.168 6.26307 26.168C6.26263 26.168 6.2622 26.168 6.26177 26.168C6.26134 26.168 6.2609 26.168 6.26047 26.168C6.26004 26.168 6.2596 26.168 6.25917 26.168C6.25874 26.168 6.25831 26.168 6.25787 26.168C6.25744 26.168 6.25701 26.168 6.25657 26.168C6.25614 26.168 6.25571 26.168 6.25527 26.168C6.25484 26.168 6.25441 26.168 6.25397 26.168C6.25354 26.168 6.25311 26.168 6.25267 26.168C6.25224 26.168 6.25181 26.168 6.25137 26.168C6.25094 26.168 6.25051 26.168 6.25007 26.168C6.24964 26.168 6.24921 26.168 6.24877 26.168C6.24834 26.168 6.24791 26.168 6.24747 26.168C6.24704 26.168 6.24661 26.168 6.24617 26.168C6.24574 26.168 6.24531 26.168 6.24487 26.168C6.24444 26.168 6.24401 26.168 6.24357 26.168C6.24314 26.168 6.2427 26.168 6.24227 26.168C6.24184 26.168 6.2414 26.168 6.24097 26.168C6.24054 26.168 6.2401 26.168 6.23967 26.168C6.23923 26.168 6.2388 26.168 6.23837 26.168C6.23793 26.168 6.2375 26.168 6.23707 26.168C6.23663 26.168 6.2362 26.168 6.23576 26.168C6.23533 26.168 6.2349 26.168 6.23446 26.168C6.23403 26.168 6.23359 26.168 6.23316 26.168C6.23273 26.168 6.23229 26.168 6.23186 26.168C6.23142 26.168 6.23099 26.168 6.23056 26.168C6.23012 26.168 6.22969 26.168 6.22925 26.168C6.22882 26.168 6.22838 26.168 6.22795 26.168C6.22752 26.168 6.22708 26.168 6.22665 26.168C6.22621 26.168 6.22578 26.168 6.22534 26.168C6.22491 26.168 6.22448 26.168 6.22404 26.168C6.22361 26.168 6.22317 26.168 6.22274 26.168C6.2223 26.168 6.22187 26.168 6.22144 26.168C6.221 26.168 6.22057 26.168 6.22013 26.168C6.2197 26.168 6.21926 26.168 6.21883 26.168C6.21839 26.168 6.21796 26.168 6.21752 26.168C6.21709 26.168 6.21665 26.168 6.21622 26.168C6.21579 26.168 6.21535 26.168 6.21492 26.168C6.21448 26.168 6.21405 26.168 6.21361 26.168C6.21318 26.168 6.21274 26.168 6.21231 26.168C6.21187 26.168 6.21144 26.168 6.211 26.168C6.21057 26.168 6.21013 26.168 6.2097 26.168C6.20926 26.168 6.20883 26.168 6.20839 26.168C6.20796 26.168 6.20752 26.168 6.20709 26.168C6.20665 26.168 6.20622 26.168 6.20578 26.168C6.20535 26.168 6.20491 26.168 6.20448 26.168C6.20404 26.168 6.20361 26.168 6.20317 26.168C6.20274 26.168 6.2023 26.168 6.20187 26.168C6.20143 26.168 6.201 26.168 6.20056 26.168C6.20013 26.168 6.19969 26.168 6.19926 26.168C6.19882 26.168 6.19839 26.168 6.19795 26.168C6.19751 26.168 6.19708 26.168 6.19664 26.168C6.19621 26.168 6.19577 26.168 6.19534 26.168C6.1949 26.168 6.19447 26.168 6.19403 26.168C6.1936 26.168 6.19316 26.168 6.19272 26.168C6.19229 26.168 6.19185 26.168 6.19142 26.168C6.19098 26.168 6.19055 26.168 6.19011 26.168C6.18967 26.168 6.18924 26.168 6.1888 26.168C6.18837 26.168 6.18793 26.168 6.1875 26.168C6.18706 26.168 6.18662 26.168 6.18619 26.168C6.18575 26.168 6.18532 26.168 6.18488 26.168C6.18445 26.168 6.18401 26.168 6.18357 26.168C6.18314 26.168 6.1827 26.168 6.18227 26.168C6.18183 26.168 6.18139 26.168 6.18096 26.168C6.18052 26.168 6.18009 26.168 6.17965 26.168C6.17921 26.168 6.17878 26.168 6.17834 26.168C6.17791 26.168 6.17747 26.168 6.17703 26.168C6.1766 26.168 6.17616 26.168 6.17572 26.168C6.17529 26.168 6.17485 26.168 6.17442 26.168C6.17398 26.168 6.17354 26.168 6.17311 26.168C6.17267 26.168 6.17223 26.168 6.1718 26.168C6.17136 26.168 6.17093 26.168 6.17049 26.168C6.17005 26.168 6.16962 26.168 6.16918 26.168C6.16874 26.168 6.16831 26.168 6.16787 26.168C6.16743 26.168 6.167 26.168 6.16656 26.168C6.16612 26.168 6.16569 26.168 6.16525 26.168C6.16481 26.168 6.16438 26.168 6.16394 26.168C6.1635 26.168 6.16307 26.168 6.16263 26.168C6.16219 26.168 6.16176 26.168 6.16132 26.168C6.16088 26.168 6.16045 26.168 6.16001 26.168C6.15957 26.168 6.15914 26.168 6.1587 26.168C6.15826 26.168 6.15783 26.168 6.15739 26.168C6.15695 26.168 6.15652 26.168 6.15608 26.168C6.15564 26.168 6.1552 26.168 6.15477 26.168C6.15433 26.168 6.15389 26.168 6.15346 26.168C6.15302 26.168 6.15258 26.168 6.15215 26.168C6.15171 26.168 6.15127 26.168 6.15083 26.168C6.1504 26.168 6.14996 26.168 6.14952 26.168C6.14909 26.168 6.14865 26.168 6.14821 26.168C6.14777 26.168 6.14734 26.168 6.1469 26.168C6.14646 26.168 6.14602 26.168 6.14559 26.168C6.14515 26.168 6.14471 26.168 6.14427 26.168C6.14384 26.168 6.1434 26.168 6.14296 26.168C6.14253 26.168 6.14209 26.168 6.14165 26.168C6.14121 26.168 6.14078 26.168 6.14034 26.168C6.1399 26.168 6.13946 26.168 6.13902 26.168C6.13859 26.168 6.13815 26.168 6.13771 26.168C6.13727 26.168 6.13684 26.168 6.1364 26.168C6.13596 26.168 6.13552 26.168 6.13509 26.168C6.13465 26.168 6.13421 26.168 6.13377 26.168C6.13333 26.168 6.1329 26.168 6.13246 26.168C6.13202 26.168 6.13158 26.168 6.13115 26.168C6.13071 26.168 6.13027 26.168 6.12983 26.168C6.12939 26.168 6.12896 26.168 6.12852 26.168C6.12808 26.168 6.12764 26.168 6.1272 26.168C6.12677 26.168 6.12633 26.168 6.12589 26.168C6.12545 26.168 6.12501 26.168 6.12458 26.168C6.12414 26.168 6.1237 26.168 6.12326 26.168C6.12282 26.168 6.12238 26.168 6.12195 26.168C6.12151 26.168 6.12107 26.168 6.12063 26.168C6.12019 26.168 6.11975 26.168 6.11932 26.168C6.11888 26.168 6.11844 26.168 6.118 26.168C6.11756 26.168 6.11712 26.168 6.11669 26.168C6.11625 26.168 6.11581 26.168 6.11537 26.168C6.11493 26.168 6.11449 26.168 6.11405 26.168C6.11362 26.168 6.11318 26.168 6.11274 26.168C6.1123 26.168 6.11186 26.168 6.11142 26.168C6.11098 26.168 6.11055 26.168 6.11011 26.168C6.10967 26.168 6.10923 26.168 6.10879 26.168C6.10835 26.168 6.10791 26.168 6.10747 26.168C6.10704 26.168 6.1066 26.168 6.10616 26.168C6.10572 26.168 6.10528 26.168 6.10484 26.168C6.1044 26.168 6.10396 26.168 6.10353 26.168C6.10309 26.168 6.10265 26.168 6.10221 26.168C6.10177 26.168 6.10133 26.168 6.10089 26.168C6.10045 26.168 6.10001 26.168 6.09957 26.168C6.09914 26.168 6.0987 26.168 6.09826 26.168C6.09782 26.168 6.09738 26.168 6.09694 26.168C6.0965 26.168 6.09606 26.168 6.09562 26.168C6.09518 26.168 6.09474 26.168 6.0943 26.168C6.09386 26.168 6.09343 26.168 6.09299 26.168C6.09255 26.168 6.09211 26.168 6.09167 26.168C6.09123 26.168 6.09079 26.168 6.09035 26.168C6.08991 26.168 6.08947 26.168 6.08903 26.168C6.08859 26.168 6.08815 26.168 6.08771 26.168C6.08727 26.168 6.08683 26.168 6.08639 26.168C6.08595 26.168 6.08551 26.168 6.08508 26.168C6.08464 26.168 6.0842 26.168 6.08376 26.168C6.08332 26.168 6.08288 26.168 6.08244 26.168C6.082 26.168 6.08156 26.168 6.08112 26.168C6.08068 26.168 6.08024 26.168 6.0798 26.168C6.07936 26.168 6.07892 26.168 6.07848 26.168C6.07804 26.168 6.0776 26.168 6.07716 26.168C6.07672 26.168 6.07628 26.168 6.07584 26.168C6.0754 26.168 6.07496 26.168 6.07452 26.168C6.07408 26.168 6.07364 26.168 6.0732 26.168C6.07276 26.168 6.07232 26.168 6.07188 26.168C6.07144 26.168 6.071 26.168 6.07056 26.168C6.07012 26.168 6.06968 26.168 6.06924 26.168C6.0688 26.168 6.06836 26.168 6.06792 26.168C6.06748 26.168 6.06704 26.168 6.0666 26.168C6.06616 26.168 6.06572 26.168 6.06527 26.168C6.06483 26.168 6.06439 26.168 6.06395 26.168C6.06351 26.168 6.06307 26.168 6.06263 26.168C6.06219 26.168 6.06175 26.168 6.06131 26.168C6.06087 26.168 6.06043 26.168 6.05999 26.168C6.05955 26.168 6.05911 26.168 6.05867 26.168C6.05823 26.168 6.05779 26.168 6.05735 26.168C6.0569 26.168 6.05646 26.168 6.05602 26.168C6.05558 26.168 6.05514 26.168 6.0547 26.168C6.05426 26.168 6.05382 26.168 6.05338 26.168C6.05294 26.168 6.0525 26.168 6.05206 26.168C6.05162 26.168 6.05117 26.168 6.05073 26.168C6.05029 26.168 6.04985 26.168 6.04941 26.168C6.04897 26.168 6.04853 26.168 6.04809 26.168C6.04765 26.168 6.04721 26.168 6.04676 26.168C6.04632 26.168 6.04588 26.168 6.04544 26.168C6.045 26.168 6.04456 26.168 6.04412 26.168C6.04368 26.168 6.04324 26.168 6.04279 26.168C6.04235 26.168 6.04191 26.168 6.04147 26.168C6.04103 26.168 6.04059 26.168 6.04015 26.168C6.03971 26.168 6.03926 26.168 6.03882 26.168C6.03838 26.168 6.03794 26.168 6.0375 26.168C6.03706 26.168 6.03662 26.168 6.03617 26.168C6.03573 26.168 6.03529 26.168 6.03485 26.168C6.03441 26.168 6.03397 26.168 6.03352 26.168C6.03308 26.168 6.03264 26.168 6.0322 26.168C6.03176 26.168 6.03132 26.168 6.03087 26.168C6.03043 26.168 6.02999 26.168 6.02955 26.168C6.02911 26.168 6.02867 26.168 6.02822 26.168C6.02778 26.168 6.02734 26.168 6.0269 26.168C6.02646 26.168 6.02602 26.168 6.02557 26.168C6.02513 26.168 6.02469 26.168 6.02425 26.168C6.02381 26.168 6.02336 26.168 6.02292 26.168C6.02248 26.168 6.02204 26.168 6.0216 26.168C6.02115 26.168 6.02071 26.168 6.02027 26.168C6.01983 26.168 6.01939 26.168 6.01894 26.168C6.0185 26.168 6.01806 26.168 6.01762 26.168C6.01718 26.168 6.01673 26.168 6.01629 26.168C6.01585 26.168 6.01541 26.168 6.01496 26.168C6.01452 26.168 6.01408 26.168 6.01364 26.168C6.01319 26.168 6.01275 26.168 6.01231 26.168C6.01187 26.168 6.01143 26.168 6.01098 26.168C6.01054 26.168 6.0101 26.168 6.00966 26.168C6.00921 26.168 6.00877 26.168 6.00833 26.168C6.00789 26.168 6.00744 26.168 6.007 26.168C6.00656 26.168 6.00612 26.168 6.00567 26.168C6.00523 26.168 6.00479 26.168 6.00434 26.168C6.0039 26.168 6.00346 26.168 6.00302 26.168C6.00257 26.168 6.00213 26.168 6.00169 26.168C6.00125 26.168 6.0008 26.168 6.00036 26.168C5.99992 26.168 5.99947 26.168 5.99903 26.168C5.99859 26.168 5.99815 26.168 5.9977 26.168C5.99726 26.168 5.99682 26.168 5.99637 26.168C5.99593 26.168 5.99549 26.168 5.99505 26.168C5.9946 26.168 5.99416 26.168 5.99372 26.168C5.99327 26.168 5.99283 26.168 5.99239 26.168C5.99194 26.168 5.9915 26.168 5.99106 26.168C5.99061 26.168 5.99017 26.168 5.98973 26.168C5.98928 26.168 5.98884 26.168 5.9884 26.168C5.98796 26.168 5.98751 26.168 5.98707 26.168C5.98663 26.168 5.98618 26.168 5.98574 26.168C5.9853 26.168 5.98485 26.168 5.98441 26.168C5.98396 26.168 5.98352 26.168 5.98308 26.168C5.98263 26.168 5.98219 26.168 5.98175 26.168C5.9813 26.168 5.98086 26.168 5.98042 26.168C5.97997 26.168 5.97953 26.168 5.97909 26.168C5.97864 26.168 5.9782 26.168 5.97776 26.168C5.97731 26.168 5.97687 26.168 5.97642 26.168C5.97598 26.168 5.97554 26.168 5.97509 26.168C5.97465 26.168 5.97421 26.168 5.97376 26.168C5.97332 26.168 5.97287 26.168 5.97243 26.168C5.97199 26.168 5.97154 26.168 5.9711 26.168C5.97065 26.168 5.97021 26.168 5.96977 26.168C5.96932 26.168 5.96888 26.168 5.96843 26.168C5.96799 26.168 5.96755 26.168 5.9671 26.168C5.96666 26.168 5.96621 26.168 5.96577 26.168C5.96533 26.168 5.96488 26.168 5.96444 26.168C5.96399 26.168 5.96355 26.168 5.96311 26.168C5.96266 26.168 5.96222 26.168 5.96177 26.168C5.96133 26.168 5.96088 26.168 5.96044 26.168C5.96 26.168 5.95955 26.168 5.95911 26.168C5.95866 26.168 5.95822 26.168 5.95777 26.168C5.95733 26.168 5.95689 26.168 5.95644 26.168C5.956 26.168 5.95555 26.168 5.95511 26.168C5.95466 26.168 5.95422 26.168 5.95377 26.168C5.95333 26.168 5.95288 26.168 5.95244 26.168C5.952 26.168 5.95155 26.168 5.95111 26.168C5.95066 26.168 5.95022 26.168 5.94977 26.168C5.94933 26.168 5.94888 26.168 5.94844 26.168C5.94799 26.168 5.94755 26.168 5.9471 26.168C5.94666 26.168 5.94621 26.168 5.94577 26.168C5.94532 26.168 5.94488 26.168 5.94443 26.168C5.94399 26.168 5.94354 26.168 5.9431 26.168C5.94265 26.168 5.94221 26.168 5.94176 26.168C5.94132 26.168 5.94087 26.168 5.94043 26.168C5.93998 26.168 5.93954 26.168 5.93909 26.168C5.93865 26.168 5.9382 26.168 5.93776 26.168C5.93731 26.168 5.93687 26.168 5.93642 26.168C5.93598 26.168 5.93553 26.168 5.93509 26.168C5.93464 26.168 5.9342 26.168 5.93375 26.168C5.93331 26.168 5.93286 26.168 5.93242 26.168C5.93197 26.168 5.93153 26.168 5.93108 26.168C5.93063 26.168 5.93019 26.168 5.92974 26.168C5.9293 26.168 5.92885 26.168 5.92841 26.168C5.92796 26.168 5.92752 26.168 5.92707 26.168C5.92663 26.168 5.92618 26.168 5.92573 26.168C5.92529 26.168 5.92484 26.168 5.9244 26.168C5.92395 26.168 5.92351 26.168 5.92306 26.168C5.92261 26.168 5.92217 26.168 5.92172 26.168C5.92128 26.168 5.92083 26.168 5.92039 26.168C5.91994 26.168 5.91949 26.168 5.91905 26.168C5.9186 26.168 5.91816 26.168 5.91771 26.168C5.91726 26.168 5.91682 26.168 5.91637 26.168C5.91593 26.168 5.91548 26.168 5.91504 26.168C5.91459 26.168 5.91414 26.168 5.9137 26.168C5.91325 26.168 5.9128 26.168 5.91236 26.168C5.91191 26.168 5.91147 26.168 5.91102 26.168C5.91057 26.168 5.91013 26.168 5.90968 26.168C5.90924 26.168 5.90879 26.168 5.90834 26.168C5.9079 26.168 5.90745 26.168 5.907 26.168C5.90656 26.168 5.90611 26.168 5.90567 26.168C5.90522 26.168 5.90477 26.168 5.90433 26.168C5.90388 26.168 5.90343 26.168 5.90299 26.168C5.90254 26.168 5.90209 26.168 5.90165 26.168C5.9012 26.168 5.90075 26.168 5.90031 26.168C5.89986 26.168 5.89942 26.168 5.89897 26.168C5.89852 26.168 5.89808 26.168 5.89763 26.168C5.89718 26.168 5.89674 26.168 5.89629 26.168C5.89584 26.168 5.8954 26.168 5.89495 26.168C5.8945 26.168 5.89406 26.168 5.89361 26.168C5.89316 26.168 5.89271 26.168 5.89227 26.168C5.89182 26.168 5.89137 26.168 5.89093 26.168C5.89048 26.168 5.89003 26.168 5.88959 26.168C5.88914 26.168 5.88869 26.168 5.88825 26.168C5.8878 26.168 5.88735 26.168 5.8869 26.168C5.88646 26.168 5.88601 26.168 5.88556 26.168C5.88512 26.168 5.88467 26.168 5.88422 26.168C5.88378 26.168 5.88333 26.168 5.88288 26.168C5.88243 26.168 5.88199 26.168 5.88154 26.168C5.88109 26.168 5.88064 26.168 5.8802 26.168C5.87975 26.168 5.8793 26.168 5.87886 26.168C5.87841 26.168 5.87796 26.168 5.87751 26.168C5.87707 26.168 5.87662 26.168 5.87617 26.168C5.87572 26.168 5.87528 26.168 5.87483 26.168C5.87438 26.168 5.87393 26.168 5.87349 26.168C5.87304 26.168 5.87259 26.168 5.87214 26.168C5.8717 26.168 5.87125 26.168 5.8708 26.168C5.87035 26.168 5.86991 26.168 5.86946 26.168C5.86901 26.168 5.86856 26.168 5.86811 26.168C5.86767 26.168 5.86722 26.168 5.86677 26.168C5.86632 26.168 5.86588 26.168 5.86543 26.168C5.86498 26.168 5.86453 26.168 5.86408 26.168C5.86364 26.168 5.86319 26.168 5.86274 26.168C5.86229 26.168 5.86184 26.168 5.8614 26.168C5.86095 26.168 5.8605 26.168 5.86005 26.168C5.8596 26.168 5.85916 26.168 5.85871 26.168C5.85826 26.168 5.85781 26.168 5.85736 26.168C5.85692 26.168 5.85647 26.168 5.85602 26.168C5.85557 26.168 5.85512 26.168 5.85468 26.168C5.85423 26.168 5.85378 26.168 5.85333 26.168C5.85288 26.168 5.85243 26.168 5.85199 26.168C5.85154 26.168 5.85109 26.168 5.85064 26.168C5.85019 26.168 5.84974 26.168 5.8493 26.168C5.84885 26.168 5.8484 26.168 5.84795 26.168C5.8475 26.168 5.84705 26.168 5.8466 26.168C5.84616 26.168 5.84571 26.168 5.84526 26.168C5.84481 26.168 5.84436 26.168 5.84391 26.168C5.84346 26.168 5.84302 26.168 5.84257 26.168C5.84212 26.168 5.84167 26.168 5.84122 26.168C5.84077 26.168 5.84032 26.168 5.83987 26.168C5.83943 26.168 5.83898 26.168 5.83853 26.168C5.83808 26.168 5.83763 26.168 5.83718 26.168C5.83673 26.168 5.83628 26.168 5.83584 26.168C5.83539 26.168 5.83494 26.168 5.83449 26.168C5.83404 26.168 5.83359 26.168 5.83314 26.168C5.83269 26.168 5.83224 26.168 5.83179 26.168C5.83135 26.168 5.8309 26.168 5.83045 26.168C5.83 26.168 5.82955 26.168 5.8291 26.168C5.82865 26.168 5.8282 26.168 5.82775 26.168C5.8273 26.168 5.82685 26.168 5.8264 26.168C5.82595 26.168 5.82551 26.168 5.82506 26.168C5.82461 26.168 5.82416 26.168 5.82371 26.168C5.82326 26.168 5.82281 26.168 5.82236 26.168C5.82191 26.168 5.82146 26.168 5.82101 26.168C5.82056 26.168 5.82011 26.168 5.81966 26.168C5.81921 26.168 5.81876 26.168 5.81831 26.168C5.81787 26.168 5.81742 26.168 5.81697 26.168C5.81652 26.168 5.81607 26.168 5.81562 26.168C5.81517 26.168 5.81472 26.168 5.81427 26.168C5.81382 26.168 5.81337 26.168 5.81292 26.168C5.81247 26.168 5.81202 26.168 5.81157 26.168C5.81112 26.168 5.81067 26.168 5.81022 26.168C5.80977 26.168 5.80932 26.168 5.80887 26.168C5.80842 26.168 5.80797 26.168 5.80752 26.168C5.80707 26.168 5.80662 26.168 5.80617 26.168C5.80572 26.168 5.80527 26.168 5.80482 26.168C5.80437 26.168 5.80392 26.168 5.80347 26.168C5.80302 26.168 5.80257 26.168 5.80212 26.168C5.80167 26.168 5.80122 26.168 5.80077 26.168C5.80032 26.168 5.79987 26.168 5.79942 26.168C5.79897 26.168 5.79852 26.168 5.79807 26.168C5.79762 26.168 5.79717 26.168 5.79672 26.168C5.79627 26.168 5.79582 26.168 5.79537 26.168C5.79491 26.168 5.79446 26.168 5.79401 26.168C5.79356 26.168 5.79311 26.168 5.79266 26.168C5.79221 26.168 5.79176 26.168 5.79131 26.168C5.79086 26.168 5.79041 26.168 5.78996 26.168C5.78951 26.168 5.78906 26.168 5.78861 26.168C5.78816 26.168 5.78771 26.168 5.78725 26.168C5.7868 26.168 5.78635 26.168 5.7859 26.168C5.78545 26.168 5.785 26.168 5.78455 26.168C5.7841 26.168 5.78365 26.168 5.7832 26.168C5.78275 26.168 5.7823 26.168 5.78185 26.168C5.78139 26.168 5.78094 26.168 5.78049 26.168C5.78004 26.168 5.77959 26.168 5.77914 26.168C5.77869 26.168 5.77824 26.168 5.77779 26.168C5.77734 26.168 5.77688 26.168 5.77643 26.168C5.77598 26.168 5.77553 26.168 5.77508 26.168C5.77463 26.168 5.77418 26.168 5.77373 26.168C5.77328 26.168 5.77282 26.168 5.77237 26.168C5.77192 26.168 5.77147 26.168 5.77102 26.168C5.77057 26.168 5.77012 26.168 5.76966 26.168C5.76921 26.168 5.76876 26.168 5.76831 26.168C5.76786 26.168 5.76741 26.168 5.76696 26.168C5.7665 26.168 5.76605 26.168 5.7656 26.168C5.76515 26.168 5.7647 26.168 5.76425 26.168C5.7638 26.168 5.76334 26.168 5.76289 26.168C5.76244 26.168 5.76199 26.168 5.76154 26.168C5.76109 26.168 5.76063 26.168 5.76018 26.168C5.75973 26.168 5.75928 26.168 5.75883 26.168C5.75838 26.168 5.75792 26.168 5.75747 26.168C5.75702 26.168 5.75657 26.168 5.75612 26.168C5.75566 26.168 5.75521 26.168 5.75476 26.168C5.75431 26.168 5.75386 26.168 5.75341 26.168C5.75295 26.168 5.7525 26.168 5.75205 26.168C5.7516 26.168 5.75115 26.168 5.75069 26.168C5.75024 26.168 5.74979 26.168 5.74934 26.168C5.74888 26.168 5.74843 26.168 5.74798 26.168C5.74753 26.168 5.74708 26.168 5.74662 26.168C5.74617 26.168 5.74572 26.168 5.74527 26.168C5.74482 26.168 5.74436 26.168 5.74391 26.168C5.74346 26.168 5.74301 26.168 5.74255 26.168C5.7421 26.168 5.74165 26.168 5.7412 26.168C5.74074 26.168 5.74029 26.168 5.73984 26.168C5.73939 26.168 5.73893 26.168 5.73848 26.168C5.73803 26.168 5.73758 26.168 5.73712 26.168C5.73667 26.168 5.73622 26.168 5.73577 26.168C5.73531 26.168 5.73486 26.168 5.73441 26.168C5.73396 26.168 5.7335 26.168 5.73305 26.168C5.7326 26.168 5.73215 26.168 5.73169 26.168C5.73124 26.168 5.73079 26.168 5.73033 26.168C5.72988 26.168 5.72943 26.168 5.72898 26.168C5.72852 26.168 5.72807 26.168 5.72762 26.168C5.72716 26.168 5.72671 26.168 5.72626 26.168C5.72581 26.168 5.72535 26.168 5.7249 26.168C5.72445 26.168 5.72399 26.168 5.72354 26.168C5.72309 26.168 5.72263 26.168 5.72218 26.168C5.72173 26.168 5.72127 26.168 5.72082 26.168C5.72037 26.168 5.71992 26.168 5.71946 26.168C5.71901 26.168 5.71856 26.168 5.7181 26.168C5.71765 26.168 5.7172 26.168 5.71674 26.168C5.71629 26.168 5.71584 26.168 5.71538 26.168C5.71493 26.168 5.71448 26.168 5.71402 26.168C5.71357 26.168 5.71312 26.168 5.71266 26.168C5.71221 26.168 5.71176 26.168 5.7113 26.168C5.71085 26.168 5.71039 26.168 5.70994 26.168C5.70949 26.168 5.70903 26.168 5.70858 26.168C5.70813 26.168 5.70767 26.168 5.70722 26.168C5.70677 26.168 5.70631 26.168 5.70586 26.168C5.70541 26.168 5.70495 26.168 5.7045 26.168C5.70404 26.168 5.70359 26.168 5.70314 26.168C5.70268 26.168 5.70223 26.168 5.70177 26.168C5.70132 26.168 5.70087 26.168 5.70041 26.168C5.69996 26.168 5.69951 26.168 5.69905 26.168C5.6986 26.168 5.69814 26.168 5.69769 26.168C5.69724 26.168 5.69678 26.168 5.69633 26.168C5.69587 26.168 5.69542 26.168 5.69497 26.168C5.69451 26.168 5.69406 26.168 5.6936 26.168C5.69315 26.168 5.69269 26.168 5.69224 26.168C5.69179 26.168 5.69133 26.168 5.69088 26.168C5.69042 26.168 5.68997 26.168 5.68952 26.168C5.68906 26.168 5.68861 26.168 5.68815 26.168C5.6877 26.168 5.68724 26.168 5.68679 26.168C5.68633 26.168 5.68588 26.168 5.68543 26.168C5.68497 26.168 5.68452 26.168 5.68406 26.168C5.68361 26.168 5.68315 26.168 5.6827 26.168C5.68224 26.168 5.68179 26.168 5.68134 26.168C5.68088 26.168 5.68043 26.168 5.67997 26.168C5.67952 26.168 5.67906 26.168 5.67861 26.168C5.67815 26.168 5.6777 26.168 5.67724 26.168C5.67679 26.168 5.67633 26.168 5.67588 26.168C5.67542 26.168 5.67497 26.168 5.67451 26.168C5.67406 26.168 5.67361 26.168 5.67315 26.168C5.6727 26.168 5.67224 26.168 5.67179 26.168C5.67133 26.168 5.67088 26.168 5.67042 26.168C5.66997 26.168 5.66951 26.168 5.66906 26.168C5.6686 26.168 5.66815 26.168 5.66769 26.168C5.66724 26.168 5.66678 26.168 5.66633 26.168C5.66587 26.168 5.66541 26.168 5.66496 26.168C5.6645 26.168 5.66405 26.168 5.66359 26.168C5.66314 26.168 5.66268 26.168 5.66223 26.168C5.66177 26.168 5.66132 26.168 5.66086 26.168C5.66041 26.168 5.65995 26.168 5.6595 26.168C5.65904 26.168 5.65859 26.168 5.65813 26.168C5.65767 26.168 5.65722 26.168 5.65676 26.168C5.65631 26.168 5.65585 26.168 5.6554 26.168C5.65494 26.168 5.65449 26.168 5.65403 26.168C5.65357 26.168 5.65312 26.168 5.65266 26.168C5.65221 26.168 5.65175 26.168 5.6513 26.168C5.65084 26.168 5.65039 26.168 5.64993 26.168C5.64947 26.168 5.64902 26.168 5.64856 26.168C5.64811 26.168 5.64765 26.168 5.6472 26.168C5.64674 26.168 5.64628 26.168 5.64583 26.168C5.64537 26.168 5.64492 26.168 5.64446 26.168C5.644 26.168 5.64355 26.168 5.64309 26.168C5.64264 26.168 5.64218 26.168 5.64172 26.168C5.64127 26.168 5.64081 26.168 5.64036 26.168C5.6399 26.168 5.63944 26.168 5.63899 26.168C5.63853 26.168 5.63808 26.168 5.63762 26.168C5.63716 26.168 5.63671 26.168 5.63625 26.168C5.63579 26.168 5.63534 26.168 5.63488 26.168C5.63443 26.168 5.63397 26.168 5.63351 26.168C5.63306 26.168 5.6326 26.168 5.63214 26.168C5.63169 26.168 5.63123 26.168 5.63077 26.168C5.63032 26.168 5.62986 26.168 5.62941 26.168C5.62895 26.168 5.62849 26.168 5.62804 26.168C5.62758 26.168 5.62712 26.168 5.62667 26.168C5.62621 26.168 5.62575 26.168 5.6253 26.168C5.62484 26.168 5.62438 26.168 5.62393 26.168C5.62347 26.168 5.62301 26.168 5.62256 26.168C5.6221 26.168 5.62164 26.168 5.62119 26.168C5.62073 26.168 5.62027 26.168 5.61982 26.168C5.61936 26.168 5.6189 26.168 5.61845 26.168C5.61799 26.168 5.61753 26.168 5.61707 26.168C5.61662 26.168 5.61616 26.168 5.6157 26.168C5.61525 26.168 5.61479 26.168 5.61433 26.168C5.61388 26.168 5.61342 26.168 5.61296 26.168C5.6125 26.168 5.61205 26.168 5.61159 26.168C5.61113 26.168 5.61068 26.168 5.61022 26.168C5.60976 26.168 5.6093 26.168 5.60885 26.168C5.60839 26.168 5.60793 26.168 5.60748 26.168C5.60702 26.168 5.60656 26.168 5.6061 26.168C5.60565 26.168 5.60519 26.168 5.60473 26.168C5.60427 26.168 5.60382 26.168 5.60336 26.168C5.6029 26.168 5.60244 26.168 5.60199 26.168C5.60153 26.168 5.60107 26.168 5.60061 26.168C5.60016 26.168 5.5997 26.168 5.59924 26.168C5.59878 26.168 5.59833 26.168 5.59787 26.168C5.59741 26.168 5.59695 26.168 5.5965 26.168C5.59604 26.168 5.59558 26.168 5.59512 26.168C5.59467 26.168 5.59421 26.168 5.59375 26.168V27.168ZM6.27734 27.168C7.60961 27.168 8.93512 27.048 10.2535 26.8083L10.0746 25.8245C8.81488 26.0535 7.54924 26.168 6.27734 26.168V27.168ZM10.2535 26.8083C11.5729 26.5685 12.8283 26.2148 14.0189 25.7466L13.6529 24.8159C12.5259 25.2592 11.3334 25.5956 10.0746 25.8245L10.2535 26.8083ZM14.0172 25.7473C15.2214 25.2789 16.335 24.7024 17.3567 24.0167L16.7995 23.1864C15.8421 23.8289 14.7942 24.3721 13.6547 24.8152L14.0172 25.7473ZM17.3605 24.0142C18.3854 23.313 19.2731 22.5142 20.0208 21.617L19.2526 20.9768C18.568 21.7983 17.7501 22.536 16.7958 23.1889L17.3605 24.0142ZM20.0232 21.6141C20.7745 20.6989 21.3558 19.6869 21.7657 18.5799L20.828 18.2326C20.4567 19.235 19.9313 20.15 19.2503 20.9796L20.0232 21.6141ZM21.7646 18.5831C22.1933 17.4489 22.3845 16.2305 22.3435 14.9334L21.344 14.965C21.3812 16.1419 21.2077 17.2282 20.8292 18.2294L21.7646 18.5831ZM35.75 28.2344L35.8971 28.7123L35.9054 28.7096L35.75 28.2344ZM36.875 27.6719L37.163 28.0807L37.1691 28.0762L36.875 27.6719ZM37.7656 26.7461L37.3564 26.4587L37.3523 26.4647L37.7656 26.7461ZM38.3281 25.4688L38.4272 24.9787L37.9553 24.8833L37.8421 25.3512L38.3281 25.4688ZM40.5898 25.9258L41.0677 26.0728L41.2301 25.5451L40.6889 25.4357L40.5898 25.9258ZM36.5117 30.3086L36.345 29.8372L36.3432 29.8379L36.5117 30.3086ZM28.5078 26.793L28.0358 26.9579L28.0373 26.962L28.5078 26.793ZM28.5781 21.3672L28.113 21.1837L28.1121 21.186L28.5781 21.3672ZM36.8164 17.6172L36.6129 18.0739L36.617 18.0757L36.8164 17.6172ZM38.7266 18.9297L38.3705 19.2808L38.373 19.2832L38.7266 18.9297ZM40.7773 23.3594L40.851 23.8539L41.3252 23.7833L41.2745 23.3066L40.7773 23.3594ZM30.6289 24.8711L30.5552 24.3766L30.0846 24.4467L30.1313 24.9202L30.6289 24.8711ZM31.0391 26.3711L30.5903 26.5916L30.5918 26.5947L31.0391 26.3711ZM31.8711 27.4844L31.5352 27.8548L31.5394 27.8585L31.8711 27.4844ZM33.0547 28.1875L32.8818 28.6568L32.8917 28.6602L33.0547 28.1875ZM37.7539 21.8477L37.8141 22.344L38.4121 22.2715L38.2307 21.6971L37.7539 21.8477ZM37.6836 21.625L38.1604 21.4744L38.1558 21.46L38.1504 21.4458L37.6836 21.625ZM36.4531 19.8086L36.1296 20.1899L36.1325 20.1922L36.4531 19.8086ZM33.4414 19.3281L33.5762 19.8097L33.5851 19.807L33.4414 19.3281ZM31.3086 21.0039L30.8882 20.7332L30.8871 20.735L31.3086 21.0039ZM30.6992 22.7031L30.2065 22.6182L30.0923 23.2804L30.7594 23.1995L30.6992 22.7031ZM34.5195 28.9219C34.9848 28.9219 35.4444 28.8515 35.897 28.7123L35.603 27.7565C35.2431 27.8672 34.8824 27.9219 34.5195 27.9219V28.9219ZM35.9054 28.7096C36.3581 28.5616 36.7779 28.3519 37.163 28.0806L36.587 27.2631C36.2846 27.4762 35.9544 27.6415 35.5946 27.7591L35.9054 28.7096ZM37.1691 28.0762C37.5614 27.7909 37.898 27.4401 38.1789 27.0275L37.3523 26.4647C37.1332 26.7865 36.8761 27.0528 36.5809 27.2675L37.1691 28.0762ZM38.1748 27.0334C38.4724 26.6096 38.6838 26.1249 38.8141 25.5863L37.8421 25.3512C37.7381 25.7814 37.5745 26.1482 37.3564 26.4588L38.1748 27.0334ZM38.2291 25.9588L40.4908 26.4159L40.6889 25.4357L38.4272 24.9787L38.2291 25.9588ZM40.112 25.7787C39.9073 26.4439 39.6202 27.0419 39.2524 27.5756L40.0758 28.1431C40.5048 27.5206 40.8349 26.8295 41.0677 26.0728L40.112 25.7787ZM39.2524 27.5756C38.8816 28.1136 38.4515 28.5719 37.9622 28.9533L38.5769 29.742C39.15 29.2953 39.6496 28.7614 40.0758 28.1431L39.2524 27.5756ZM37.9622 28.9533C37.4737 29.334 36.9354 29.6284 36.345 29.8372L36.6784 30.78C37.3693 30.5356 38.0028 30.1895 38.5769 29.742L37.9622 28.9533ZM36.3432 29.8379C35.7663 30.0444 35.1594 30.1484 34.5195 30.1484V31.1484C35.2703 31.1484 35.9915 31.0259 36.6803 30.7793L36.3432 29.8379ZM34.5195 30.1484C33.5383 30.1484 32.688 29.9997 31.9599 29.7142L31.5948 30.6452C32.4604 30.9846 33.4383 31.1484 34.5195 31.1484V30.1484ZM31.9599 29.7142C31.2247 29.4259 30.6153 29.0232 30.1226 28.5094L29.4008 29.2015C30.0019 29.8283 30.7362 30.3085 31.5948 30.6452L31.9599 29.7142ZM30.1226 28.5094C29.6282 27.9938 29.2457 27.3681 28.9784 26.6239L28.0373 26.962C28.3481 27.8273 28.8015 28.5765 29.4008 29.2015L30.1226 28.5094ZM28.9798 26.628C28.7199 25.8842 28.5859 25.0427 28.5859 24.0977H27.5859C27.5859 25.137 27.7333 26.0923 28.0358 26.9579L28.9798 26.628ZM28.5859 24.0977C28.5859 23.1782 28.7402 22.33 29.0441 21.5484L28.1121 21.186C27.7598 22.0919 27.5859 23.064 27.5859 24.0977H28.5859ZM29.0432 21.5507C29.3582 20.7524 29.7833 20.0681 30.3163 19.4919L29.5822 18.8128C28.9589 19.4866 28.47 20.2789 28.113 21.1837L29.0432 21.5507ZM30.3163 19.4919C30.8493 18.9156 31.4751 18.4622 32.1972 18.13L31.7793 17.2215C30.939 17.6081 30.2054 18.1391 29.5822 18.8128L30.3163 19.4919ZM32.1972 18.13C32.9094 17.8024 33.6814 17.6367 34.5195 17.6367V16.6367C33.5451 16.6367 32.6296 16.8304 31.7793 17.2215L32.1972 18.13ZM34.5195 17.6367C35.2642 17.6367 35.9603 17.7831 36.6129 18.0739L37.0199 17.1605C36.235 16.8107 35.3998 16.6367 34.5195 16.6367V17.6367ZM36.617 18.0757C37.2767 18.3625 37.8604 18.7634 38.3705 19.2808L39.0826 18.5786C38.4834 17.971 37.7936 17.4968 37.0158 17.1587L36.617 18.0757ZM38.373 19.2832C38.8845 19.7947 39.3093 20.403 39.6459 21.1127L40.5494 20.6842C40.1672 19.8783 39.678 19.174 39.0801 18.5761L38.373 19.2832ZM39.6459 21.1127C39.9798 21.8167 40.192 22.5821 40.2801 23.4122L41.2745 23.3066C41.1752 22.3711 40.9343 21.4958 40.5494 20.6842L39.6459 21.1127ZM40.7037 22.8648L30.5552 24.3766L30.7026 25.3656L40.851 23.8539L40.7037 22.8648ZM30.1313 24.9202C30.1912 25.5271 30.3421 26.0863 30.5903 26.5915L31.4878 26.1506C31.2985 25.7653 31.176 25.3244 31.1265 24.822L30.1313 24.9202ZM30.5918 26.5947C30.8361 27.0832 31.1499 27.5053 31.5352 27.8547L32.207 27.114C31.9204 26.8541 31.6795 26.534 31.4863 26.1475L30.5918 26.5947ZM31.5394 27.8585C31.9313 28.2059 32.3801 28.4718 32.8818 28.6567L33.2275 27.7183C32.8386 27.575 32.4984 27.3722 32.2027 27.1102L31.5394 27.8585ZM32.8917 28.6602C33.4019 28.8361 33.9457 28.9219 34.5195 28.9219V27.9219C34.0465 27.9219 33.6138 27.8514 33.2177 27.7148L32.8917 28.6602ZM38.2307 21.6971L38.1604 21.4744L37.2068 21.7756L37.2771 21.9982L38.2307 21.6971ZM38.1504 21.4458C37.8295 20.6098 37.3752 19.9276 36.7738 19.425L36.1325 20.1922C36.5779 20.5646 36.9439 21.0933 37.2168 21.8042L38.1504 21.4458ZM36.7766 19.4273C36.1578 18.9022 35.3934 18.6523 34.5195 18.6523V19.6523C35.1925 19.6523 35.7172 19.8399 36.1296 20.1898L36.7766 19.4273ZM34.5195 18.6523C34.1326 18.6523 33.7242 18.7213 33.2977 18.8492L33.5851 19.807C33.9399 19.7006 34.2502 19.6523 34.5195 19.6523V18.6523ZM33.3066 18.8466C32.8498 18.9745 32.4162 19.1959 32.0061 19.5013L32.6033 20.3034C32.9276 20.0619 33.2518 19.9005 33.5762 19.8096L33.3066 18.8466ZM32.0061 19.5013C31.5824 19.8168 31.2113 20.2316 30.8882 20.7332L31.729 21.2746C31.9996 20.8544 32.2926 20.5347 32.6033 20.3034L32.0061 19.5013ZM30.8871 20.735C30.5537 21.2575 30.3319 21.8908 30.2065 22.6182L31.1919 22.7881C31.3009 22.1561 31.4853 21.6565 31.7301 21.2728L30.8871 20.735ZM30.7594 23.1995L37.8141 22.344L37.6937 21.3513L30.639 22.2068L30.7594 23.1995ZM52.25 30.2383L51.7524 30.1889L51.7063 30.6538L52.167 30.7313L52.25 30.2383ZM52.4141 28.5859L52.9116 28.6353L53.0135 27.6092L52.1447 28.1647L52.4141 28.5859ZM49.6016 29.9102L49.4594 29.4308L49.4583 29.4311L49.6016 29.9102ZM45.3945 30.0977L45.5291 29.6161L45.5243 29.6148L45.3945 30.0977ZM44 29.4414L43.6962 29.8387L43.705 29.8451L44 29.4414ZM43.0273 28.293L42.583 28.5225L42.5878 28.5314L43.0273 28.293ZM46.3086 21.9648L46.1505 21.4905L46.1483 21.4912L46.3086 21.9648ZM47.9258 21.5898L47.9946 22.0851L48.0013 22.0841L47.9258 21.5898ZM52.2266 21.6719L52.1371 22.1638L52.9075 22.3039L52.7105 21.5461L52.2266 21.6719ZM51.8516 20.5234L51.3854 20.7042L51.3867 20.7075L51.8516 20.5234ZM51.2773 19.5039L50.8761 19.8023L50.8804 19.8081L50.8849 19.8137L51.2773 19.5039ZM48.1836 18.625L48.291 19.1134L48.3003 19.1112L48.1836 18.625ZM45.3594 20.0781L45.6548 20.4815L45.6585 20.4788L45.3594 20.0781ZM43.5781 21.6484L43.1921 21.9662L43.5443 22.3941L43.9338 21.9998L43.5781 21.6484ZM42.1602 19.9258L41.8182 19.561L41.4762 19.8816L41.7741 20.2435L42.1602 19.9258ZM46.25 17.1602L46.4419 17.6219L46.4448 17.6206L46.25 17.1602ZM47.9375 16.6328L47.8494 16.1406L47.8481 16.1409L47.9375 16.6328ZM51.2656 16.8672L51.0625 17.3241L51.0679 17.3264L51.2656 16.8672ZM52.7422 17.875L52.3853 18.2254L52.3919 18.2318L52.7422 17.875ZM53.8203 19.375L53.373 19.5986L53.3768 19.6059L53.8203 19.375ZM54.5469 21.2266L54.0657 21.3624L54.0661 21.3639L54.5469 21.2266ZM54.9453 23.2773L54.4483 23.332L54.4489 23.3373L54.9453 23.2773ZM54.5469 30.625L54.4639 31.1181L54.9528 31.2004L55.0392 30.7121L54.5469 30.625ZM52.5781 25.9727L52.8459 26.3949L53.0672 26.2545L53.0777 25.9926L52.5781 25.9727ZM52.5547 23.6172L53.0515 23.5609L53.0146 23.2351L52.701 23.1391L52.5547 23.6172ZM48.0312 23.4766L47.9113 22.9912L47.91 22.9915L48.0312 23.4766ZM45.2539 25.3398L44.8129 25.1041L44.8098 25.1101L45.2539 25.3398ZM45.1133 26.8867L45.6002 26.7731L45.5991 26.7685L45.1133 26.8867ZM45.7461 27.8711L45.4888 28.2999L45.4935 28.3026L45.7461 27.8711ZM48.3594 27.9297L48.4958 28.4107L48.5005 28.4094L48.3594 27.9297ZM49.9297 27.3672L50.125 27.8275L50.1283 27.826L49.9297 27.3672ZM52.7476 30.2877L52.9116 28.6353L51.9165 28.5365L51.7524 30.1889L52.7476 30.2877ZM52.1447 28.1647C51.2243 28.7531 50.3293 29.1728 49.4594 29.4308L49.7437 30.3895C50.7176 30.1007 51.6976 29.6375 52.6834 29.0072L52.1447 28.1647ZM49.4583 29.4311C48.5818 29.6933 47.775 29.8203 47.0352 29.8203V30.8203C47.889 30.8203 48.7932 30.6739 49.7449 30.3892L49.4583 29.4311ZM47.0352 29.8203C46.5172 29.8203 46.0157 29.7521 45.5291 29.6161L45.26 30.5792C45.8359 30.7401 46.4281 30.8203 47.0352 30.8203V29.8203ZM45.5243 29.6148C45.0557 29.4889 44.6478 29.2955 44.295 29.0377L43.705 29.8451C44.1647 30.181 44.6865 30.4252 45.2648 30.5805L45.5243 29.6148ZM44.3037 29.0442C43.9638 28.7843 43.6848 28.4565 43.4669 28.0546L42.5878 28.5314C42.8698 29.0513 43.2394 29.4892 43.6963 29.8386L44.3037 29.0442ZM43.4716 28.0635C43.2726 27.6785 43.1641 27.2094 43.1641 26.6406H42.1641C42.1641 27.3375 42.2977 27.97 42.5831 28.5225L43.4716 28.0635ZM43.1641 26.6406C43.1641 26.0569 43.2505 25.5515 43.4135 25.117L42.4771 24.7658C42.2651 25.3313 42.1641 25.9587 42.1641 26.6406H43.1641ZM43.4135 25.117C43.5817 24.6684 43.8105 24.2784 44.0984 23.9426L43.3391 23.2918C42.9707 23.7216 42.684 24.2144 42.4771 24.7658L43.4135 25.117ZM44.0984 23.9426C44.3914 23.6007 44.7379 23.3061 45.1405 23.0589L44.6173 22.2067C44.1293 22.5064 43.7023 22.8681 43.3391 23.2918L44.0984 23.9426ZM45.1405 23.0589C45.5531 22.8055 45.9956 22.5986 46.4689 22.4385L46.1483 21.4912C45.606 21.6748 45.0953 21.9132 44.6173 22.2067L45.1405 23.0589ZM46.4667 22.4392C46.952 22.2774 47.4611 22.1592 47.9946 22.0851L47.857 21.0946C47.2655 21.1768 46.6964 21.3085 46.1505 21.4905L46.4667 22.4392ZM48.0013 22.0841C48.5394 22.0019 49.0728 21.9609 49.6016 21.9609V20.9609C49.021 20.9609 48.4371 21.0059 47.8503 21.0956L48.0013 22.0841ZM49.6016 21.9609C50.1048 21.9609 50.5705 21.98 50.9993 22.0176L51.0867 21.0214C50.6248 20.9809 50.1296 20.9609 49.6016 20.9609V21.9609ZM50.9993 22.0176C51.4332 22.0557 51.812 22.1047 52.1371 22.1638L52.316 21.1799C51.9536 21.1141 51.5433 21.0615 51.0867 21.0214L50.9993 22.0176ZM52.7105 21.5461C52.6038 21.1357 52.4724 20.7334 52.3165 20.3394L51.3867 20.7075C51.5276 21.0635 51.6462 21.4268 51.7427 21.7977L52.7105 21.5461ZM52.3177 20.3427C52.1528 19.9174 51.9376 19.5333 51.6698 19.1941L50.8849 19.8137C51.0859 20.0683 51.2534 20.3639 51.3854 20.7042L52.3177 20.3427ZM51.6786 19.2056C51.4093 18.8434 51.0741 18.5505 50.6773 18.329L50.1899 19.2022C50.465 19.3558 50.6923 19.555 50.8761 19.8023L51.6786 19.2056ZM50.6773 18.329C50.2522 18.0918 49.7621 17.9844 49.2266 17.9844V18.9844C49.6285 18.9844 49.9431 19.0645 50.1899 19.2022L50.6773 18.329ZM49.2266 17.9844C48.8724 17.9844 48.4844 18.0386 48.0669 18.1388L48.3003 19.1112C48.664 19.0239 48.9713 18.9844 49.2266 18.9844V17.9844ZM48.0762 18.1367C47.6351 18.2337 47.1659 18.4108 46.6709 18.6583L47.1181 19.5527C47.5607 19.3314 47.9509 19.1882 48.291 19.1133L48.0762 18.1367ZM46.6709 18.6583C46.1688 18.9093 45.6316 19.2509 45.0603 19.6774L45.6585 20.4788C46.1965 20.0772 46.6827 19.7704 47.1181 19.5527L46.6709 18.6583ZM45.0639 19.6747C44.4824 20.1006 43.8685 20.643 43.2224 21.2971L43.9338 21.9998C44.5533 21.3727 45.127 20.8681 45.6548 20.4815L45.0639 19.6747ZM43.9642 21.3307L42.5462 19.608L41.7741 20.2435L43.1921 21.9662L43.9642 21.3307ZM42.5021 20.2905C43.2356 19.6029 43.9311 19.0484 44.5882 18.6228L44.0446 17.7835C43.3268 18.2484 42.5847 18.8424 41.8182 19.561L42.5021 20.2905ZM44.5882 18.6228C45.2565 18.1899 45.8742 17.8578 46.4419 17.6219L46.0581 16.6984C45.4227 16.9625 44.7513 17.3257 44.0446 17.7835L44.5882 18.6228ZM46.4448 17.6206C47.0287 17.3736 47.5555 17.2105 48.0269 17.1247L47.8481 16.1409C47.2883 16.2427 46.69 16.4311 46.0552 16.6997L46.4448 17.6206ZM48.0256 17.125C48.5277 17.0351 48.9662 16.9922 49.3438 16.9922V15.9922C48.8932 15.9922 48.3941 16.0431 47.8494 16.1406L48.0256 17.125ZM49.3438 16.9922C50.0042 16.9922 50.5738 17.1069 51.0626 17.3241L51.4687 16.4103C50.8324 16.1275 50.1208 15.9922 49.3438 15.9922V16.9922ZM51.0679 17.3264C51.5719 17.5434 52.0098 17.8427 52.3854 18.2253L53.099 17.5247C52.6309 17.0479 52.0844 16.6753 51.4634 16.4079L51.0679 17.3264ZM52.3919 18.2318C52.7793 18.6122 53.1069 19.0663 53.3731 19.5986L54.2675 19.1514C53.9556 18.5275 53.5644 17.9816 53.0925 17.5182L52.3919 18.2318ZM53.3768 19.6059C53.6568 20.1438 53.8868 20.7289 54.0657 21.3624L55.0281 21.0907C54.832 20.3961 54.5776 19.7469 54.2638 19.1441L53.3768 19.6059ZM54.0661 21.3639C54.2455 21.9918 54.3731 22.6477 54.4483 23.332L55.4423 23.2227C55.3613 22.4851 55.2232 21.7738 55.0276 21.0892L54.0661 21.3639ZM54.4489 23.3373C54.5325 24.0287 54.5742 24.7157 54.5742 25.3984H55.5742C55.5742 24.6749 55.53 23.9478 55.4417 23.2173L54.4489 23.3373ZM54.5742 25.3984C54.5742 26.1296 54.5323 26.9175 54.4478 27.7627L55.4428 27.8623C55.5302 26.9888 55.5742 26.1673 55.5742 25.3984H54.5742ZM54.4478 27.7627C54.3633 28.6075 54.2324 29.5324 54.0545 30.5379L55.0392 30.7121C55.2207 29.6864 55.3554 28.7363 55.4428 27.8623L54.4478 27.7627ZM54.6299 30.1319L52.333 29.7452L52.167 30.7313L54.4639 31.1181L54.6299 30.1319ZM53.0777 25.9926C53.0935 25.5988 53.1053 25.2088 53.1132 24.8227L52.1134 24.8023C52.1056 25.1818 52.094 25.5652 52.0785 25.9527L53.0777 25.9926ZM53.1132 24.8227C53.1215 24.4159 53.1007 23.9952 53.0515 23.5609L52.0579 23.6734C52.1025 24.0673 52.1207 24.4435 52.1134 24.8023L53.1132 24.8227ZM52.701 23.1391C52.2958 23.015 51.872 22.9164 51.4299 22.8427L51.2655 23.8291C51.6671 23.8961 52.0479 23.985 52.4083 24.0953L52.701 23.1391ZM51.4299 22.8427C50.9812 22.768 50.5318 22.7305 50.082 22.7305V23.7305C50.476 23.7305 50.8704 23.7633 51.2655 23.8291L51.4299 22.8427ZM50.082 22.7305C49.3396 22.7305 48.6157 22.8171 47.9113 22.9912L48.1512 23.962C48.7749 23.8079 49.4182 23.7305 50.082 23.7305V22.7305ZM47.91 22.9915C47.2093 23.1667 46.5891 23.4249 46.0579 23.7733L46.6062 24.6095C47.0281 24.3329 47.5407 24.1146 48.1525 23.9616L47.91 22.9915ZM46.0579 23.7733C45.5191 24.1266 45.0988 24.5694 44.8129 25.1042L45.6949 25.5755C45.8934 25.204 46.1918 24.8812 46.6062 24.6095L46.0579 23.7733ZM44.8098 25.1101C44.511 25.6878 44.4633 26.3302 44.6274 27.0049L45.5991 26.7685C45.482 26.287 45.5281 25.8981 45.698 25.5696L44.8098 25.1101ZM44.6264 27.0003C44.7562 27.5568 45.0265 28.0224 45.4888 28.2998L46.0033 27.4423C45.8407 27.3447 45.6891 27.1541 45.6002 26.7731L44.6264 27.0003ZM45.4935 28.3026C45.9044 28.5432 46.3782 28.6523 46.8945 28.6523V27.6523C46.5202 27.6523 46.2284 27.574 45.9987 27.4396L45.4935 28.3026ZM46.8945 28.6523C47.4019 28.6523 47.9366 28.5693 48.4958 28.4107L48.223 27.4487C47.7353 27.5869 47.2934 27.6523 46.8945 27.6523V28.6523ZM48.5005 28.4094C49.0503 28.2476 49.5919 28.0536 50.125 27.8275L49.7344 26.9069C49.2363 27.1182 48.7309 27.2992 48.2183 27.45L48.5005 28.4094ZM50.1283 27.826C50.6641 27.5941 51.1697 27.3495 51.6446 27.0919L51.1679 26.2128C50.721 26.4552 50.2421 26.6871 49.7311 26.9083L50.1283 27.826ZM51.6446 27.0919C52.1121 26.8383 52.5131 26.6059 52.8459 26.3949L52.3104 25.5504C52.0025 25.7456 51.6223 25.9664 51.1679 26.2128L51.6446 27.0919ZM66.9336 22.9023L66.4337 22.9125L66.4481 23.6188L67.1094 23.3704L66.9336 22.9023ZM66.8281 21.9062L66.3371 22.0017L66.34 22.0147L66.8281 21.9062ZM66.6055 21.1797L66.145 21.3745L66.1481 21.3819L66.1515 21.3892L66.6055 21.1797ZM66.3008 20.6758L65.9148 20.9936L65.9202 21.0002L65.9259 21.0066L66.3008 20.6758ZM65.9609 20.3477L66.2566 19.9444L66.2516 19.9408L65.9609 20.3477ZM65.0352 20.0664L65.0238 19.5665L64.994 19.5672L64.9644 19.5714L65.0352 20.0664ZM64.332 20.3477L64.5933 20.774L64.597 20.7717L64.332 20.3477ZM63.582 20.9336L63.9184 21.3036L63.9244 21.298L63.582 20.9336ZM62.7969 21.7422L62.42 21.4136L62.4194 21.4143L62.7969 21.7422ZM62.0469 22.668L62.4421 22.9743L62.4457 22.9695L62.0469 22.668ZM60.7695 24.4609L60.3535 24.1836L60.2675 24.3126L60.2696 24.4676L60.7695 24.4609ZM60.8047 26.1953L60.3049 26.209L60.3049 26.2092L60.8047 26.1953ZM60.8398 27.7773L60.3398 27.7853L60.3401 27.7935L60.8398 27.7773ZM60.8867 29.1016L60.387 29.1212L60.3876 29.1315L60.8867 29.1016ZM60.957 30.0508L61.0193 30.5469L61.5015 30.4863L61.4547 30.0026L60.957 30.0508ZM58.4375 30.3672L57.9378 30.3846L57.9569 30.9315L58.4998 30.8633L58.4375 30.3672ZM58.3086 26.7227L57.8089 26.7405L57.8089 26.7406L58.3086 26.7227ZM58.1211 21.5195L57.6212 21.5314L57.6214 21.5374L58.1211 21.5195ZM58.0742 19.8203L57.5744 19.8343L57.5745 19.8367L58.0742 19.8203ZM58.0039 17.3359L57.9951 16.836L57.4895 16.8449L57.5041 17.3504L58.0039 17.3359ZM60.6758 17.2891L61.1757 17.2809L61.1675 16.7804L60.667 16.7891L60.6758 17.2891ZM60.6875 18.7539L60.1874 18.7539L60.1876 18.7618L60.6875 18.7539ZM60.7109 20.1133L61.2109 20.1052L61.2108 20.1038L60.7109 20.1133ZM60.7227 21.5312H60.2227V23.2619L61.1456 21.7979L60.7227 21.5312ZM61.543 20.3477L61.1456 20.0442L61.1421 20.0488L61.543 20.3477ZM62.6445 19.1289L62.3051 18.7618L62.3016 18.765L62.6445 19.1289ZM63.9922 18.1328L64.2433 18.5652L64.2454 18.564L63.9922 18.1328ZM65.5625 17.5938L65.5375 17.0944L65.5185 17.0953L65.4996 17.0977L65.5625 17.5938ZM67.2734 17.9922L67.024 18.4255L67.0254 18.4263L67.2734 17.9922ZM67.918 18.4961L67.5644 18.8496L67.571 18.8562L67.5777 18.8625L67.918 18.4961ZM68.5156 19.293L68.0771 19.5331L68.0805 19.5394L68.0841 19.5456L68.5156 19.293ZM68.9844 20.4531L68.5024 20.5861L68.503 20.5883L68.9844 20.4531ZM69.2422 22.0352L69.418 22.5032L69.7695 22.3712L69.7407 21.9968L69.2422 22.0352ZM67.4335 22.8921C67.4252 22.4863 67.3878 22.1199 67.3162 21.7978L66.34 22.0147C66.3935 22.2551 66.4264 22.5527 66.4337 22.9125L67.4335 22.8921ZM67.3189 21.8108C67.2586 21.5006 67.1739 21.2182 67.0594 20.9702L66.1515 21.3892C66.2245 21.5474 66.2883 21.7494 66.3373 22.0017L67.3189 21.8108ZM67.066 20.9849C66.9639 20.7438 66.8361 20.5267 66.6757 20.345L65.9259 21.0066C65.9999 21.0905 66.0751 21.2094 66.145 21.3745L67.066 20.9849ZM66.6867 20.3579C66.5556 20.1987 66.4128 20.059 66.2566 19.9445L65.6653 20.7509C65.7434 20.8082 65.8272 20.8872 65.9148 20.9936L66.6867 20.3579ZM66.2516 19.9408C65.888 19.6811 65.4729 19.5563 65.0238 19.5665L65.0465 20.5663C65.2849 20.5609 65.487 20.6236 65.6703 20.7545L66.2516 19.9408ZM64.9644 19.5714C64.6577 19.6152 64.3574 19.7422 64.067 19.9237L64.597 20.7717C64.8067 20.6406 64.9751 20.5801 65.1059 20.5614L64.9644 19.5714ZM64.0708 19.9214C63.7935 20.0913 63.5166 20.3091 63.2397 20.5692L63.9244 21.298C64.1631 21.0737 64.3862 20.9009 64.5933 20.774L64.0708 19.9214ZM63.2457 20.5636C62.9715 20.8129 62.6964 21.0966 62.42 21.4136L63.1738 22.0708C63.4286 21.7784 63.6769 21.5231 63.9184 21.3036L63.2457 20.5636ZM62.4194 21.4143C62.154 21.7199 61.8969 22.0373 61.648 22.3664L62.4457 22.9695C62.6812 22.658 62.9241 22.3582 63.1744 22.07L62.4194 21.4143ZM61.6517 22.3617C61.4047 22.6804 61.1694 22.9994 60.9459 23.3187L61.7651 23.8922C61.979 23.5866 62.2047 23.2806 62.4421 22.9743L61.6517 22.3617ZM60.9459 23.3187C60.7254 23.6337 60.5279 23.922 60.3535 24.1836L61.1856 24.7383C61.3549 24.4842 61.548 24.2023 61.7651 23.8922L60.9459 23.3187ZM60.2696 24.4676C60.2774 25.0558 60.2892 25.6363 60.3049 26.209L61.3045 26.1816C61.2889 25.6137 61.2773 25.0379 61.2695 24.4543L60.2696 24.4676ZM60.3049 26.2092C60.3205 26.77 60.3321 27.2953 60.3399 27.7853L61.3398 27.7694C61.3319 27.275 61.3202 26.7456 61.3045 26.1814L60.3049 26.2092ZM60.3401 27.7935C60.3558 28.2788 60.3714 28.7213 60.3871 29.1212L61.3863 29.082C61.3708 28.6849 61.3552 28.2447 61.3396 27.7612L60.3401 27.7935ZM60.3876 29.1315C60.4112 29.525 60.4351 29.8482 60.4594 30.0989L61.4547 30.0026C61.4321 29.769 61.4091 29.4593 61.3858 29.0716L60.3876 29.1315ZM60.8947 29.5547L58.3752 29.8711L58.4998 30.8633L61.0193 30.5469L60.8947 29.5547ZM58.9372 30.3498C58.8903 29.0059 58.8473 27.7908 58.8083 26.7047L57.8089 26.7406C57.848 27.8264 57.8909 29.041 57.9378 30.3846L58.9372 30.3498ZM58.8083 26.7048C58.7692 25.611 58.734 24.6343 58.7028 23.7748L57.7035 23.8111C57.7347 24.6704 57.7699 25.6468 57.8089 26.7405L58.8083 26.7048ZM58.7028 23.7748C58.6715 22.9155 58.6442 22.1578 58.6208 21.5017L57.6214 21.5374C57.6449 22.1938 57.6722 22.9517 57.7035 23.8111L58.7028 23.7748ZM58.621 21.5076C58.6053 20.8504 58.5896 20.2824 58.574 19.8039L57.5745 19.8367C57.59 20.3113 57.6056 20.8762 57.6212 21.5314L58.621 21.5076ZM58.574 19.8063C58.5428 18.6891 58.5193 17.8608 58.5037 17.3215L57.5041 17.3504C57.5197 17.8892 57.5432 18.7171 57.5744 19.8343L58.574 19.8063ZM58.0127 17.8359L60.6846 17.789L60.667 16.7891L57.9951 16.836L58.0127 17.8359ZM60.1758 17.2973C60.1836 17.771 60.1875 18.2565 60.1875 18.7539H61.1875C61.1875 18.2513 61.1836 17.7603 61.1757 17.2809L60.1758 17.2973ZM60.1876 18.7618C60.1954 19.2544 60.2032 19.7081 60.211 20.1227L61.2108 20.1038C61.203 19.6904 61.1952 19.2377 61.1874 18.746L60.1876 18.7618ZM60.211 20.1213C60.2188 20.6032 60.2227 21.0731 60.2227 21.5312H61.2227C61.2227 21.0675 61.2187 20.5921 61.2109 20.1052L60.211 20.1213ZM61.1456 21.7979C61.3637 21.4519 61.6294 21.0683 61.9438 20.6465L61.1421 20.0488C60.8159 20.4864 60.5347 20.8918 60.2997 21.2646L61.1456 21.7979ZM61.9404 20.6511C62.2515 20.2437 62.6003 19.8576 62.9874 19.4928L62.3016 18.765C61.8762 19.1659 61.4907 19.5922 61.1456 20.0442L61.9404 20.6511ZM62.984 19.496C63.3712 19.138 63.7909 18.8279 64.2433 18.5652L63.7411 17.7004C63.2248 18.0002 62.7459 18.3542 62.3051 18.7618L62.984 19.496ZM64.2454 18.564C64.6804 18.3085 65.1393 18.1514 65.6254 18.0898L65.4996 17.0977C64.8763 17.1767 64.2883 17.379 63.739 17.7017L64.2454 18.564ZM65.5875 18.0931C66.1218 18.0664 66.596 18.1791 67.024 18.4255L67.5229 17.5589C66.9196 17.2115 66.2532 17.0586 65.5375 17.0944L65.5875 18.0931ZM67.0254 18.4263C67.1992 18.5257 67.3793 18.6645 67.5644 18.8496L68.2715 18.1425C68.0348 17.9058 67.7852 17.7087 67.5215 17.5581L67.0254 18.4263ZM67.5777 18.8625C67.7486 19.0212 67.9169 19.2407 68.0771 19.5331L68.9542 19.0528C68.7549 18.689 68.5248 18.3773 68.2582 18.1297L67.5777 18.8625ZM68.0841 19.5456C68.2447 19.82 68.386 20.1643 68.5024 20.5861L69.4664 20.3202C69.3327 19.8357 69.1615 19.4066 68.9471 19.0404L68.0841 19.5456ZM68.503 20.5883C68.6168 20.9937 68.6986 21.4871 68.7437 22.0735L69.7407 21.9968C69.6921 21.3645 69.6019 20.8031 69.4658 20.318L68.503 20.5883ZM69.0664 21.5671L66.7578 22.4343L67.1094 23.3704L69.418 22.5032L69.0664 21.5671ZM104.926 30.3398L105.023 30.8303L105.506 30.7346L105.418 30.2502L104.926 30.3398ZM100.883 31.1406L100.389 31.2197L100.471 31.7319L100.98 31.6311L100.883 31.1406ZM96.957 6.62891L97.4507 6.54983L96.4786 6.48366L96.957 6.62891ZM90.5117 27.8594L90.5698 28.356L90.895 28.318L90.9902 28.0046L90.5117 27.8594ZM85.668 28.4258L85.1967 28.5928L85.33 28.9687L85.726 28.9224L85.668 28.4258ZM78.3633 7.82031L78.8345 7.65325L77.8694 7.74238L78.3633 7.82031ZM74.8281 30.2227L74.76 30.718L75.2456 30.7847L75.322 30.3006L74.8281 30.2227ZM70.707 29.6562L70.2158 29.5629L70.1176 30.0799L70.639 30.1516L70.707 29.6562ZM76.1172 1.17969V0.679688H75.7032L75.626 1.08636L76.1172 1.17969ZM80.1602 1.17969L80.6322 1.01471L80.5151 0.679688H80.1602V1.17969ZM88.0312 23.6992L87.5593 23.8642L88.0562 25.2859L88.5082 23.8493L88.0312 23.6992ZM95.043 1.41406L95.0302 0.914225L94.6732 0.92334L94.566 1.264L95.043 1.41406ZM99.6328 1.29688L100.125 1.20723L100.048 0.786112L99.6201 0.797038L99.6328 1.29688ZM104.829 29.8494L100.786 30.6502L100.98 31.6311L105.023 30.8303L104.829 29.8494ZM101.377 31.0616L97.4507 6.54983L96.4633 6.70798L100.389 31.2197L101.377 31.0616ZM96.4786 6.48366L90.0333 27.7141L90.9902 28.0046L97.4355 6.77415L96.4786 6.48366ZM90.4536 27.3628L85.6099 27.9292L85.726 28.9224L90.5698 28.356L90.4536 27.3628ZM86.1392 28.2587L78.8345 7.65325L77.892 7.98738L85.1967 28.5928L86.1392 28.2587ZM77.8694 7.74238L74.3342 30.1447L75.322 30.3006L78.8572 7.89825L77.8694 7.74238ZM74.8962 29.7273L70.7751 29.1609L70.639 30.1516L74.76 30.718L74.8962 29.7273ZM71.1982 29.7496L76.6084 1.27301L75.626 1.08636L70.2158 29.5629L71.1982 29.7496ZM76.1172 1.67969H80.1602V0.679688H76.1172V1.67969ZM79.6882 1.34466L87.5593 23.8642L88.5032 23.5342L80.6322 1.01471L79.6882 1.34466ZM88.5082 23.8493L95.5199 1.56413L94.566 1.264L87.5543 23.5492L88.5082 23.8493ZM95.0557 1.9139L99.6456 1.79671L99.6201 0.797038L95.0302 0.914225L95.0557 1.9139ZM99.1409 1.38652L104.434 30.4295L105.418 30.2502L100.125 1.20723L99.1409 1.38652ZM114.75 28.2344L114.897 28.7123L114.905 28.7096L114.75 28.2344ZM115.875 27.6719L116.163 28.0807L116.169 28.0762L115.875 27.6719ZM116.766 26.7461L116.356 26.4587L116.352 26.4647L116.766 26.7461ZM117.328 25.4688L117.427 24.9787L116.955 24.8833L116.842 25.3512L117.328 25.4688ZM119.59 25.9258L120.068 26.0728L120.23 25.5451L119.689 25.4357L119.59 25.9258ZM115.512 30.3086L115.345 29.8372L115.343 29.8379L115.512 30.3086ZM107.508 26.793L107.036 26.9579L107.037 26.962L107.508 26.793ZM107.578 21.3672L107.113 21.1837L107.112 21.186L107.578 21.3672ZM115.816 17.6172L115.613 18.0739L115.617 18.0757L115.816 17.6172ZM117.727 18.9297L117.371 19.2808L117.373 19.2832L117.727 18.9297ZM119.777 23.3594L119.851 23.8539L120.325 23.7833L120.275 23.3066L119.777 23.3594ZM109.629 24.8711L109.555 24.3766L109.085 24.4467L109.131 24.9202L109.629 24.8711ZM110.039 26.3711L109.59 26.5916L109.592 26.5947L110.039 26.3711ZM110.871 27.4844L110.535 27.8548L110.539 27.8585L110.871 27.4844ZM112.055 28.1875L111.882 28.6568L111.892 28.6602L112.055 28.1875ZM116.754 21.8477L116.814 22.344L117.412 22.2715L117.231 21.6971L116.754 21.8477ZM116.684 21.625L117.16 21.4744L117.156 21.46L117.15 21.4458L116.684 21.625ZM115.453 19.8086L115.13 20.1899L115.132 20.1922L115.453 19.8086ZM112.441 19.3281L112.576 19.8097L112.585 19.807L112.441 19.3281ZM110.309 21.0039L109.888 20.7332L109.887 20.735L110.309 21.0039ZM109.699 22.7031L109.206 22.6182L109.092 23.2804L109.759 23.1995L109.699 22.7031ZM113.52 28.9219C113.985 28.9219 114.444 28.8515 114.897 28.7123L114.603 27.7565C114.243 27.8672 113.882 27.9219 113.52 27.9219V28.9219ZM114.905 28.7096C115.358 28.5616 115.778 28.3519 116.163 28.0806L115.587 27.2631C115.285 27.4762 114.954 27.6415 114.595 27.7591L114.905 28.7096ZM116.169 28.0762C116.561 27.7909 116.898 27.4401 117.179 27.0275L116.352 26.4647C116.133 26.7865 115.876 27.0528 115.581 27.2675L116.169 28.0762ZM117.175 27.0334C117.472 26.6096 117.684 26.1249 117.814 25.5863L116.842 25.3512C116.738 25.7814 116.574 26.1482 116.356 26.4588L117.175 27.0334ZM117.229 25.9588L119.491 26.4159L119.689 25.4357L117.427 24.9787L117.229 25.9588ZM119.112 25.7787C118.907 26.4439 118.62 27.0419 118.252 27.5756L119.076 28.1431C119.505 27.5206 119.835 26.8295 120.068 26.0728L119.112 25.7787ZM118.252 27.5756C117.882 28.1136 117.452 28.5719 116.962 28.9533L117.577 29.742C118.15 29.2953 118.65 28.7614 119.076 28.1431L118.252 27.5756ZM116.962 28.9533C116.474 29.334 115.935 29.6284 115.345 29.8372L115.678 30.78C116.369 30.5356 117.003 30.1895 117.577 29.742L116.962 28.9533ZM115.343 29.8379C114.766 30.0444 114.159 30.1484 113.52 30.1484V31.1484C114.27 31.1484 114.992 31.0259 115.68 30.7793L115.343 29.8379ZM113.52 30.1484C112.538 30.1484 111.688 29.9997 110.96 29.7142L110.595 30.6452C111.46 30.9846 112.438 31.1484 113.52 31.1484V30.1484ZM110.96 29.7142C110.225 29.4259 109.615 29.0232 109.123 28.5094L108.401 29.2015C109.002 29.8283 109.736 30.3085 110.595 30.6452L110.96 29.7142ZM109.123 28.5094C108.628 27.9938 108.246 27.3681 107.978 26.6239L107.037 26.962C107.348 27.8273 107.801 28.5765 108.401 29.2015L109.123 28.5094ZM107.98 26.628C107.72 25.8842 107.586 25.0427 107.586 24.0977H106.586C106.586 25.137 106.733 26.0923 107.036 26.9579L107.98 26.628ZM107.586 24.0977C107.586 23.1782 107.74 22.33 108.044 21.5484L107.112 21.186C106.76 22.0919 106.586 23.064 106.586 24.0977H107.586ZM108.043 21.5507C108.358 20.7524 108.783 20.0681 109.316 19.4919L108.582 18.8128C107.959 19.4866 107.47 20.2789 107.113 21.1837L108.043 21.5507ZM109.316 19.4919C109.849 18.9156 110.475 18.4622 111.197 18.13L110.779 17.2215C109.939 17.6081 109.205 18.1391 108.582 18.8128L109.316 19.4919ZM111.197 18.13C111.909 17.8024 112.681 17.6367 113.52 17.6367V16.6367C112.545 16.6367 111.63 16.8304 110.779 17.2215L111.197 18.13ZM113.52 17.6367C114.264 17.6367 114.96 17.7831 115.613 18.0739L116.02 17.1605C115.235 16.8107 114.4 16.6367 113.52 16.6367V17.6367ZM115.617 18.0757C116.277 18.3625 116.86 18.7634 117.371 19.2808L118.083 18.5786C117.483 17.971 116.794 17.4968 116.016 17.1587L115.617 18.0757ZM117.373 19.2832C117.885 19.7947 118.309 20.403 118.646 21.1127L119.549 20.6842C119.167 19.8783 118.678 19.174 118.08 18.5761L117.373 19.2832ZM118.646 21.1127C118.98 21.8167 119.192 22.5821 119.28 23.4122L120.275 23.3066C120.175 22.3711 119.934 21.4958 119.549 20.6842L118.646 21.1127ZM119.704 22.8648L109.555 24.3766L109.703 25.3656L119.851 23.8539L119.704 22.8648ZM109.131 24.9202C109.191 25.5271 109.342 26.0863 109.59 26.5915L110.488 26.1506C110.299 25.7653 110.176 25.3244 110.126 24.822L109.131 24.9202ZM109.592 26.5947C109.836 27.0832 110.15 27.5053 110.535 27.8547L111.207 27.114C110.92 26.8541 110.68 26.534 110.486 26.1475L109.592 26.5947ZM110.539 27.8585C110.931 28.2059 111.38 28.4718 111.882 28.6567L112.228 27.7183C111.839 27.575 111.498 27.3722 111.203 27.1102L110.539 27.8585ZM111.892 28.6602C112.402 28.8361 112.946 28.9219 113.52 28.9219V27.9219C113.046 27.9219 112.614 27.8514 112.218 27.7148L111.892 28.6602ZM117.231 21.6971L117.16 21.4744L116.207 21.7756L116.277 21.9982L117.231 21.6971ZM117.15 21.4458C116.83 20.6098 116.375 19.9276 115.774 19.425L115.132 20.1922C115.578 20.5646 115.944 21.0933 116.217 21.8042L117.15 21.4458ZM115.777 19.4273C115.158 18.9022 114.393 18.6523 113.52 18.6523V19.6523C114.193 19.6523 114.717 19.8399 115.13 20.1898L115.777 19.4273ZM113.52 18.6523C113.133 18.6523 112.724 18.7213 112.298 18.8492L112.585 19.807C112.94 19.7006 113.25 19.6523 113.52 19.6523V18.6523ZM112.307 18.8466C111.85 18.9745 111.416 19.1959 111.006 19.5013L111.603 20.3034C111.928 20.0619 112.252 19.9005 112.576 19.8096L112.307 18.8466ZM111.006 19.5013C110.582 19.8168 110.211 20.2316 109.888 20.7332L110.729 21.2746C111 20.8544 111.293 20.5347 111.603 20.3034L111.006 19.5013ZM109.887 20.735C109.554 21.2575 109.332 21.8908 109.206 22.6182L110.192 22.7881C110.301 22.1561 110.485 21.6565 110.73 21.2728L109.887 20.735ZM109.759 23.1995L116.814 22.344L116.694 21.3513L109.639 22.2068L109.759 23.1995Z" fill="black"/>
</svg>