<svg xmlns="http://www.w3.org/2000/svg" width="25" height="25" viewBox="0 0 25 25" fill="none">
<path d="M4.57419 19.6195L4.5723 19.6176L3.46879 18.5141C3.20401 18.2493 3.20675 17.8252 3.4669 17.5678L3.46879 17.566L8.17582 12.8589L8.52937 12.5054L8.17582 12.1518L3.46879 7.44479C3.20401 7.18001 3.20675 6.75588 3.46689 6.49851L3.46692 6.49853L3.47112 6.49427L4.56844 5.38233C4.83328 5.11857 5.25665 5.12163 5.5137 5.38144L5.5137 5.38145L5.51559 5.38334L12.1562 12.024L12.1581 12.0258C12.4245 12.2895 12.4245 12.7136 12.1611 12.977L5.52047 19.6176C5.2557 19.8824 4.83157 19.8797 4.57419 19.6195ZM13.9473 5.38334L13.9492 5.38144C14.2066 5.1213 14.6307 5.11857 14.8955 5.38334L21.5361 12.024C21.8019 12.2898 21.7964 12.7124 21.5399 12.9635L21.5399 12.9634L21.5361 12.9672L14.8955 19.6079L14.8936 19.6098C14.6362 19.8699 14.2121 19.8726 13.9473 19.6079L12.8438 18.5044L12.8419 18.5025C12.5817 18.2451 12.579 17.821 12.8438 17.5562L17.5508 12.8492L17.9044 12.4956L17.5508 12.1421L12.8438 7.43502L12.8419 7.43314C12.5817 7.17576 12.579 6.75163 12.8438 6.48685L13.9473 5.38334Z" fill="#FFC876" stroke="black"/>
</svg>