<svg xmlns="http://www.w3.org/2000/svg" width="26" height="26" viewBox="0 0 26 26" fill="none">
<path d="M21.1918 5.6959L21.1937 5.69779L22.2972 6.80131C22.562 7.06608 22.5592 7.49021 22.2991 7.74758L22.2968 7.74984L17.5947 12.4618L17.2419 12.8153L17.5951 13.1685L22.3021 17.8755C22.5669 18.1403 22.5641 18.5644 22.304 18.8218L22.3013 18.8245L21.1986 19.9321C21.1985 19.9322 21.1984 19.9323 21.1983 19.9324C20.9335 20.1969 20.5096 20.194 20.2523 19.934L20.2504 19.9321L13.6098 13.2915L13.6079 13.2896C13.3415 13.026 13.3415 12.6018 13.6049 12.3384L20.2455 5.69779C20.5103 5.43302 20.9344 5.43575 21.1918 5.6959ZM11.8187 19.9321L11.8168 19.934C11.5594 20.1941 11.1353 20.1969 10.8705 19.9321L4.2299 13.2915C3.9665 13.0281 3.96648 12.6039 4.23291 12.3403L4.23291 12.3403L4.23478 12.3384L10.8754 5.69779L10.8754 5.6978L10.8773 5.6959C11.1346 5.43584 11.5585 5.43302 11.8233 5.69753C11.8234 5.69762 11.8235 5.6977 11.8236 5.69779L12.9263 6.80541L12.9263 6.80542L12.929 6.80808C13.1891 7.06545 13.1919 7.48958 12.9271 7.75436L8.22006 12.4614L7.86687 12.8146L8.21969 13.1681L12.9218 17.88L12.9218 17.88L12.9241 17.8823C13.1842 18.1397 13.187 18.5638 12.9222 18.8286L11.8187 19.9321Z" fill="#FFC876" stroke="black"/>
</svg>