<svg xmlns="http://www.w3.org/2000/svg" width="23" height="23" viewBox="0 0 23 23" fill="none">
<path d="M20.0938 0.895508H2.90625C1.6123 0.895508 0.5625 1.94531 0.5625 3.23926V20.4268C0.5625 21.7207 1.6123 22.7705 2.90625 22.7705H20.0938C21.3877 22.7705 22.4375 21.7207 22.4375 20.4268V3.23926C22.4375 1.94531 21.3877 0.895508 20.0938 0.895508ZM5.05469 13.7861C4.73242 13.7861 4.46875 13.5225 4.46875 13.2002V10.4658C4.46875 10.1436 4.73242 9.87988 5.05469 9.87988H17.9453C18.2676 9.87988 18.5312 10.1436 18.5312 10.4658V13.2002C18.5312 13.5225 18.2676 13.7861 17.9453 13.7861H5.05469Z" fill="#FFC876"/>
</svg>