<svg xmlns="http://www.w3.org/2000/svg" width="30" height="30" viewBox="0 0 30 30" fill="none">
<g clip-path="url(#clip0_29_32)">
<path d="M15 30C23.2843 30 30 23.2843 30 15C30 6.71573 23.2843 0 15 0C6.71573 0 0 6.71573 0 15C0 23.2843 6.71573 30 15 30Z" fill="#FBE7E1"/>
<path d="M13.8003 22.8C15.4571 22.8 16.8003 21.7255 16.8003 20.4C16.8003 19.0745 15.4571 18 13.8003 18C12.1434 18 10.8003 19.0745 10.8003 20.4C10.8003 21.7255 12.1434 22.8 13.8003 22.8Z" fill="black"/>
<path d="M7.5 15C8.32843 15 9 13.6569 9 12C9 10.3431 8.32843 9 7.5 9C6.67157 9 6 10.3431 6 12C6 13.6569 6.67157 15 7.5 15Z" fill="black"/>
<path d="M2.1 17.4C3.2598 17.4 4.2 16.8627 4.2 16.2C4.2 15.5373 3.2598 15 2.1 15C0.940202 15 0 15.5373 0 16.2C0 16.8627 0.940202 17.4 2.1 17.4Z" fill="#F7CBCB"/>
<path d="M6.90029 13.2012C7.23166 13.2012 7.50029 12.5296 7.50029 11.7012C7.50029 10.8727 7.23166 10.2012 6.90029 10.2012C6.56892 10.2012 6.30029 10.8727 6.30029 11.7012C6.30029 12.5296 6.56892 13.2012 6.90029 13.2012Z" fill="white"/>
<path d="M15.0006 18H12.6006V19.8H15.0006V18Z" fill="white"/>
<path d="M25.4994 17.4C26.6592 17.4 27.5994 16.8627 27.5994 16.2C27.5994 15.5373 26.6592 15 25.4994 15C24.3396 15 23.3994 15.5373 23.3994 16.2C23.3994 16.8627 24.3396 17.4 25.4994 17.4Z" fill="#F7CBCB"/>
<path d="M19.5 15C20.3284 15 21 13.6569 21 12C21 10.3431 20.3284 9 19.5 9C18.6716 9 18 10.3431 18 12C18 13.6569 18.6716 15 19.5 15Z" fill="black"/>
<path d="M18.9003 13.2012C19.2317 13.2012 19.5003 12.5296 19.5003 11.7012C19.5003 10.8727 19.2317 10.2012 18.9003 10.2012C18.5689 10.2012 18.3003 10.8727 18.3003 11.7012C18.3003 12.5296 18.5689 13.2012 18.9003 13.2012Z" fill="white"/>
</g>
<defs>
<clipPath id="clip0_29_32">
<rect width="30" height="30" fill="white"/>
</clipPath>
</defs>
</svg>