<svg xmlns="http://www.w3.org/2000/svg" width="20" height="20" viewBox="0 0 20 20" fill="none">
<g clip-path="url(#clip0_123_328)">
<path d="M19.0959 3.25199L19.0968 3.25293C19.6342 3.78741 19.6355 4.65759 19.0959 5.19723L17.3166 6.97649L13.0237 2.68359L14.803 0.904335C15.3375 0.369797 16.2088 0.368296 16.7487 0.904824C16.7489 0.904975 16.749 0.905125 16.7492 0.905276L19.0959 3.25199ZM0.508222 18.9894L0.508417 18.9883L1.30936 14.398L11.4358 4.27156L15.7306 8.56641L5.606 18.691L1.01765 19.4954C1.01739 19.4955 1.01713 19.4955 1.01687 19.4955C0.712902 19.5469 0.456067 19.2843 0.508222 18.9894ZM5.81273 16.5625V16.0625H5.31273H3.93773V14.6875V14.1875H3.43773H2.01977H1.59975L1.52727 14.6012L1.08586 17.1207L1.041 17.3768L1.22481 17.5606L2.43965 18.7754L2.62345 18.9592L2.87949 18.9144L5.39902 18.473L5.81273 18.4005V17.9805V16.5625ZM4.49434 12.1504C4.08423 12.5605 4.08423 13.2208 4.49434 13.6309C4.90444 14.041 5.56477 14.041 5.97488 13.6309L11.9905 7.61527C12.4006 7.20517 12.4006 6.54483 11.9905 6.13473C11.5804 5.72462 10.9201 5.72462 10.51 6.13473L4.49434 12.1504Z" fill="#FFC876" stroke="black"/>
</g>
<defs>
<clipPath id="clip0_123_328">
<rect width="20" height="20" fill="white"/>
</clipPath>
</defs>
</svg>