<svg xmlns="http://www.w3.org/2000/svg" width="15" height="16" viewBox="0 0 15 16" fill="none">
<path d="M13.125 6.59375H8.90625V2.375C8.90625 1.85732 8.48643 1.4375 7.96875 1.4375H7.03125C6.51357 1.4375 6.09375 1.85732 6.09375 2.375V6.59375H1.875C1.35732 6.59375 0.9375 7.01357 0.9375 7.53125V8.46875C0.9375 8.98643 1.35732 9.40625 1.875 9.40625H6.09375V13.625C6.09375 14.1427 6.51357 14.5625 7.03125 14.5625H7.96875C8.48643 14.5625 8.90625 14.1427 8.90625 13.625V9.40625H13.125C13.6427 9.40625 14.0625 8.98643 14.0625 8.46875V7.53125C14.0625 7.01357 13.6427 6.59375 13.125 6.59375Z" fill="black"/>
</svg>